<svg width="449" height="767" viewBox="0 0 449 767" fill="none" xmlns="http://www.w3.org/2000/svg">
<path fill-rule="evenodd" clip-rule="evenodd" d="M250.65 70.3161H251.316L251.643 69.7369L270.702 36.0184L271.019 35.4572L270.702 34.896L251.643 1.17755L251.316 0.59827L250.65 0.59827L212.37 0.598267L211.705 0.598267L211.378 1.17755L192.319 34.896L192.001 35.4572L192.319 36.0184L211.378 69.7369L211.705 70.3161H212.37H250.65ZM268.399 35.4572L249.985 68.0351H213.036L194.622 35.4572L213.036 2.87926L249.985 2.87927L268.399 35.4572ZM327.315 187.008H326.65L288.37 187.008H287.705L287.378 186.429L268.319 152.71L268.001 152.149L268.319 151.588L287.378 117.869L287.705 117.29H288.37L326.65 117.29H327.315L327.643 117.869L346.702 151.588L347.019 152.149L346.702 152.71L327.643 186.429L327.315 187.008ZM325.985 184.727L344.399 152.149L325.985 119.571L289.036 119.571L270.621 152.149L289.036 184.727H325.985ZM249.587 259.005L268.002 226.428L249.587 193.85H212.638L194.869 225.287H211.973H212.636L212.964 225.863L231.856 259.005H249.587ZM212.638 259.005H229.23L211.31 227.568H194.869L212.638 259.005ZM192.914 224.11L210.98 192.148L211.308 191.569H211.973H250.253H250.918L251.245 192.148L270.305 225.867L270.622 226.428L270.305 226.989L251.564 260.144L269.312 291.39L287.379 259.583L287.707 259.005H288.37H326.65H327.314L327.642 259.583L346.701 293.137L347.02 293.699L346.702 294.261L327.96 327.419L346.702 360.576L347.019 361.137L346.702 361.698L327.643 395.417L327.315 395.996H326.65H308.094L289.681 428.412L308.094 460.988H326.65H327.315L327.643 461.567L346.702 495.286L347.019 495.847L346.702 496.408L327.643 530.126L327.315 530.706H326.65H308.094L289.681 563.121L308.422 596.277L308.739 596.838L308.422 597.399L289.681 630.555L308.093 662.97H326.65H327.315L327.643 663.549L346.702 697.267L347.019 697.829L346.702 698.39L327.643 732.108L327.315 732.688H326.65H308.095L289.363 765.828L289.036 766.407H288.37H250.252H249.587L249.259 765.828L231.189 733.858L212.964 765.831L212.636 766.407H211.973H173.855H173.189L172.862 765.827L154.795 733.865L136.729 765.828L136.401 766.407H135.736H97.4563H96.7909L96.4635 765.828L78.3977 733.866L60.3319 765.828L60.0044 766.407H59.339H21.0594H20.3939L20.0665 765.828L1.00745 732.109L0.690231 731.548L1.00745 730.987L19.7493 697.829L1.00745 664.672L0.689453 664.109L1.00863 663.548L19.7485 630.556L1.00745 597.4L0.690231 596.838L1.00745 596.277L19.7484 563.121L1.00863 530.129L0.689453 529.567L1.00745 529.005L19.7494 495.847L1.00745 462.69L0.690231 462.129L1.00745 461.567L19.7483 428.412L1.00863 395.42L0.689453 394.858L1.00745 394.296L19.7497 361.138L1.00745 327.98L0.690231 327.418L1.00745 326.857L19.7484 293.701L1.00863 260.709L0.689453 260.147L1.00745 259.585L20.0665 225.866L20.394 225.287H21.0594H59.339H60.0044L60.3319 225.866L78.3976 257.828L96.4635 225.866L96.7909 225.287H97.4563H115.853L134.746 192.145L135.074 191.569H135.737H173.855H174.52L174.847 192.148L192.914 224.11ZM192.914 228.745L210.662 260.145L192.914 291.391L175.166 260.145L192.914 228.745ZM190.959 227.568L173.189 259.005H156.751L174.52 227.568H190.959ZM190.959 225.287H173.855H173.189L172.862 225.866L154.795 257.829L136.729 225.866L136.401 225.287H135.736H118.479L136.399 193.85H173.189L190.959 225.287ZM118.479 227.568H135.071L152.84 259.005H136.399L118.479 227.568ZM115.853 227.568L134.423 260.145L116.52 291.398L98.4488 259.583L98.121 259.005H97.4572H80.3522L98.1218 227.568H115.853ZM136.397 261.287L118.484 292.559H135.072L152.835 261.287H136.397ZM156.755 261.287L174.518 292.559H190.954L173.191 261.287H156.755ZM78.3977 392.538L60.6486 361.138L78.3977 329.737L96.1467 361.138L78.3977 392.538ZM58.6736 359.996L76.4432 328.559H60.0045L42.2349 359.996H58.6736ZM76.4434 326.278L60.0045 326.278L42.2349 294.841H58.6738L76.4434 326.278ZM58.029 327.419L39.6147 359.996H21.7248L3.3104 327.418L21.7246 294.841H39.6147L58.029 327.419ZM39.6162 292.559H21.723L3.31118 260.145L21.7248 227.568H58.6736L76.4432 259.005H59.339H58.6752L58.3474 259.583L39.6162 292.559ZM42.2395 292.559L60.0029 261.286H76.4387L58.6754 292.559H42.2395ZM80.3566 261.286L98.1199 292.559H114.557L96.7933 261.286H80.3566ZM98.7672 327.419L116.52 296.011L134.424 327.419L116.52 358.826L98.7672 327.419ZM192.914 358.82L175.165 327.419L192.914 296.017L210.663 327.419L192.914 358.82ZM173.189 326.278L190.959 294.841H174.52L156.75 326.278L173.189 326.278ZM135.071 294.841H118.479L136.399 326.278L152.84 326.278L135.071 294.841ZM114.561 294.841L96.7917 326.278L80.3519 326.278L98.1216 294.841H114.561ZM96.1454 293.701L78.3977 325.1L60.65 293.701L78.3977 262.456L96.1454 293.701ZM114.561 359.996H98.1218L80.3521 328.559H96.7917L114.561 359.996ZM137.046 361.138L154.795 392.54L172.545 361.138L154.795 329.735L137.046 361.138ZM152.84 328.559L135.071 359.996H118.479L136.399 328.559H152.84ZM154.795 325.101L172.544 293.701L154.795 262.455L137.047 293.701L154.795 325.101ZM212.637 261.287L194.874 292.559H211.312L229.226 261.287H212.637ZM231.854 261.287L213.287 293.701L231.189 325.108L249.259 293.139L249.587 292.559H250.252H267.353L249.59 261.287H231.854ZM308.095 328.559H325.985L344.399 361.137L325.985 393.715H308.094L289.68 361.138L308.095 328.559ZM289.036 328.559H305.474L287.705 359.996H271.266L289.036 328.559ZM305.475 326.278H289.036L271.266 294.84H287.705L305.475 326.278ZM287.06 327.419L269.312 296.018L251.563 327.419L269.312 358.819L287.06 327.419ZM288.37 292.559H271.271L289.034 261.286H325.986L344.398 293.701L325.985 326.278H308.095L289.363 293.139L289.036 292.559H288.37ZM267.357 294.84H250.918L233.148 326.278L249.588 326.278L267.357 294.84ZM229.231 326.278L211.31 294.841H194.869L212.639 326.278L229.231 326.278ZM194.869 359.996L212.639 328.559H229.23L211.31 359.996H194.869ZM173.189 328.559L190.959 359.996H174.52L156.751 328.559H173.189ZM231.189 329.729L213.285 361.138L231.189 392.546L248.943 361.138L231.189 329.729ZM267.357 362.279L249.588 393.715H233.149L250.918 362.279H267.357ZM211.31 362.279L229.23 393.715H212.639L194.87 362.279H211.31ZM190.958 362.279H174.52L156.751 393.715H173.189L190.958 362.279ZM192.914 363.454L175.165 394.855L192.914 426.101L210.663 394.854L192.914 363.454ZM250.918 359.996L233.148 328.559H249.588L267.357 359.996H250.918ZM134.423 394.855L116.52 426.108L98.7678 394.855L116.52 363.448L134.423 394.855ZM152.84 393.715H136.399L118.48 362.279H135.071L152.84 393.715ZM96.7917 393.715L114.561 362.279H98.1218L80.3527 393.715H96.7917ZM58.6736 362.279H42.2355L60.0045 393.715H76.4426L58.6736 362.279ZM58.0284 394.855L39.6153 362.279H21.7248L3.31118 394.856L21.7228 427.27H39.6162L58.0284 394.855ZM60.649 495.847L78.3977 527.248L96.1463 495.847L78.3977 464.447L60.649 495.847ZM39.6144 494.707L58.0289 462.129L39.615 429.551H21.7244L3.3104 462.129L21.7248 494.707H39.6144ZM114.562 494.707L96.7919 463.269H80.352L98.1218 494.707H114.562ZM60.0043 463.269H76.4433L58.6736 494.707H42.2346L60.0043 463.269ZM116.52 430.721L98.7674 462.128L116.52 493.536L134.424 462.128L116.52 430.721ZM118.479 429.551L136.399 460.988H152.84L135.071 429.551H118.479ZM173.189 463.269L190.959 494.707H174.52L156.75 463.269H173.189ZM136.399 463.269H152.84L135.071 494.707H118.479L136.399 463.269ZM175.165 462.128L192.914 430.728L210.663 462.128L192.914 493.529L175.165 462.128ZM190.959 429.551L173.189 460.988H156.751L174.52 429.551H190.959ZM173.191 395.997L190.954 427.27H174.518L156.755 395.997H173.191ZM152.836 395.997L135.073 427.27H118.484L136.398 395.997H152.836ZM96.7919 460.988L114.561 429.551H98.1214L80.3522 460.988H96.7919ZM114.557 427.27L96.7933 395.997H80.3564L98.1197 427.27H114.557ZM60.0029 395.997L42.2395 427.27H58.6756L76.439 395.997H60.0029ZM58.674 429.551H42.2351L60.0043 460.988H76.4431L58.674 429.551ZM78.3977 459.81L96.1453 428.412L78.3977 397.167L60.6501 428.412L78.3977 459.81ZM154.795 527.249L137.046 495.847L154.795 464.446L172.545 495.847L154.795 527.249ZM172.544 428.412L154.795 459.812L137.047 428.412L154.795 397.165L172.544 428.412ZM269.312 363.455L251.564 394.855L269.975 427.27H287.707L305.471 395.996H288.37H287.705L287.378 395.417L269.312 363.455ZM305.474 393.715H289.036L271.267 362.279H287.705L305.474 393.715ZM267.352 427.27H250.916L233.152 395.997H249.589L267.352 427.27ZM229.226 395.997L211.312 427.27H194.873L212.637 395.997H229.226ZM267.357 429.551L249.587 460.988H233.148L250.917 429.551H267.357ZM251.563 462.128L269.977 429.551H287.705L305.474 460.988H288.37H287.705L287.378 461.567L269.311 493.529L251.563 462.128ZM250.918 494.707L233.148 463.269H249.587L267.357 494.707H250.918ZM212.638 463.269H229.231L211.31 494.707H194.868L212.638 463.269ZM212.638 460.988L194.869 429.551H211.311L229.23 460.988H212.638ZM248.941 428.412L231.189 397.159L213.287 428.412L231.189 459.818L248.941 428.412ZM231.189 527.255L213.286 495.847L231.189 464.439L248.942 495.847L231.189 527.255ZM305.475 463.269H289.036L271.266 494.707H287.705L305.475 463.269ZM289.68 495.847L308.095 463.269H325.985L344.399 495.847L325.985 528.425H308.094L289.68 495.847ZM250.918 496.988L233.148 528.425H249.587L267.356 496.988H250.918ZM229.23 528.425L211.31 496.988H194.869L212.638 528.425H229.23ZM174.52 496.988H190.959L173.189 528.425H156.751L174.52 496.988ZM175.165 529.564L192.914 498.164L210.662 529.564L192.914 560.811L175.165 529.564ZM116.52 560.818L134.423 529.564L116.52 498.157L98.7679 529.564L116.52 560.818ZM136.399 528.425H152.84L135.071 496.988H118.479L136.399 528.425ZM114.561 496.988L96.7917 528.425H80.3523L98.1218 496.988H114.561ZM42.2351 496.988H58.6736L76.443 528.425H60.0045L42.2351 496.988ZM39.6149 496.988L58.0283 529.564L39.6161 561.98H21.7232L3.31118 529.565L21.7248 496.988H39.6149ZM39.6143 629.416H21.7248L3.3104 596.838L21.7248 564.26H39.6145L58.0288 596.838L39.6143 629.416ZM98.1218 629.416L80.352 597.979H96.792L114.562 629.416L98.1218 629.416ZM60.0042 597.979H76.4433L58.6736 629.416H42.2345L60.0042 597.979ZM98.7674 596.838L116.52 565.43L134.424 596.838L116.52 628.246L98.7674 596.838ZM136.399 595.698L118.479 564.26H135.071L152.84 595.697L136.399 595.698ZM173.189 597.978L190.959 629.416L174.52 629.416L156.75 597.978H173.189ZM136.399 597.978H152.84L135.071 629.416L118.479 629.416L136.399 597.978ZM192.914 565.437L175.165 596.838L192.914 628.239L210.663 596.838L192.914 565.437ZM173.189 595.698L190.959 564.26H174.52L156.751 595.697L173.189 595.698ZM156.755 530.706L174.519 561.98H190.954L173.191 530.706H156.755ZM135.072 561.98L152.836 530.706H136.398L118.483 561.98H135.072ZM114.562 564.26L96.792 595.697H80.3523L98.1218 564.26H114.562ZM98.1202 561.98L80.3559 530.706H96.7933L114.557 561.98H98.1202ZM42.2393 561.98L60.0029 530.706H76.4394L58.6752 561.98H42.2393ZM42.2347 564.26H58.6736L76.443 595.697H60.0042L42.2347 564.26ZM78.3977 594.52L60.6499 563.121L78.3977 531.876L96.1454 563.121L78.3977 594.52ZM78.3977 599.157L60.6499 630.555L78.3976 661.801L96.1454 630.555L78.3977 599.157ZM42.2398 631.697H58.6752L76.439 662.97L60.0029 662.97L42.2398 631.697ZM21.7232 631.697H39.6165L58.0281 664.112L39.6142 696.689H21.7248L3.31118 664.112L21.7232 631.697ZM154.795 594.521L137.047 563.121L154.795 531.875L172.544 563.121L154.795 594.521ZM137.047 630.555L154.795 599.155L172.544 630.555L154.795 661.802L137.047 630.555ZM135.072 631.697H118.484L136.397 662.97H152.835L135.072 631.697ZM114.557 631.697H98.1202L80.3564 662.97L96.7933 662.97L114.557 631.697ZM251.563 529.564L269.312 498.165L287.378 530.126L287.705 530.706H288.37H305.47L287.707 561.979H269.975L251.563 529.564ZM289.036 528.425H305.474L287.705 496.988H271.267L289.036 528.425ZM211.312 561.98L229.226 530.706H212.637L194.873 561.98H211.312ZM250.916 561.979L233.152 530.706H249.589L267.352 561.979H250.916ZM250.917 564.261H267.357L249.587 595.698L233.148 595.697L250.917 564.261ZM269.977 564.261L251.563 596.838L269.977 629.416H287.705L306.119 596.838L287.705 564.261H269.977ZM250.918 629.416L233.148 597.978H249.587L267.357 629.416H250.918ZM212.638 597.978H229.231L211.31 629.416L194.868 629.416L212.638 597.978ZM229.23 595.697L212.638 595.698L194.869 564.26H211.31L229.23 595.697ZM213.286 630.555L231.189 599.149L248.941 630.555L231.189 661.809L213.286 630.555ZM211.312 631.697H194.874L212.637 662.97L229.225 662.97L211.312 631.697ZM190.954 631.697H174.519L156.756 662.97H173.191L190.954 631.697ZM231.189 594.528L213.287 563.121L231.189 531.868L248.941 563.121L231.189 594.528ZM269.975 631.697H287.706L305.469 662.97H288.37H287.705L287.378 663.549L269.311 695.511L251.564 664.112L269.975 631.697ZM250.916 631.697H267.352L249.589 662.97L233.153 662.97L250.916 631.697ZM116.52 632.858L98.7681 664.112L116.52 695.518L134.423 664.112L116.52 632.858ZM173.189 665.251L190.959 696.689H174.52L156.75 665.251H173.189ZM136.399 665.251H152.84L135.071 696.689H118.479L136.399 665.251ZM175.166 664.112L192.914 632.865L210.662 664.112L192.914 695.511L175.166 664.112ZM42.2343 696.689L60.0045 665.251H76.4437L58.6736 696.689H42.2343ZM98.1218 696.689L80.3517 665.251H96.7917L114.562 696.689H98.1218ZM21.7248 698.97H39.615L58.3462 732.108L58.6736 732.688H59.339H76.4429L58.6736 764.126H21.7248L3.3104 731.548L21.7248 698.97ZM76.4422 730.407L58.6736 698.97H42.2351L60.0045 730.407H76.4422ZM98.1218 764.126L80.3516 732.688H97.4572H98.1226L98.45 732.108L116.52 700.139L134.746 732.112L135.074 732.688H135.736H152.841L135.071 764.126H98.1218ZM156.75 732.688L174.52 764.126H211.31L229.231 732.688H211.973H211.308L210.98 732.108L192.914 700.146L174.847 732.108L174.52 732.688H173.855H156.75ZM190.959 698.97L173.189 730.407H156.751L174.52 698.97H190.959ZM118.479 698.97H135.071L152.84 730.407H136.399L118.479 698.97ZM96.7917 730.407L114.561 698.97H98.1218L80.3524 730.407H96.7917ZM78.3977 729.229L60.6491 697.829L78.3977 666.429L96.1463 697.829L78.3977 729.229ZM172.545 697.829L154.795 729.231L137.046 697.829L154.795 666.428L172.545 697.829ZM212.638 665.251L194.868 696.689H211.31L229.231 665.251H212.638ZM233.147 665.251L250.918 696.689H267.357L249.587 665.251H233.147ZM287.705 696.689L305.475 665.251H289.036L271.266 696.689H287.705ZM325.985 665.251H308.095L289.68 697.829L308.094 730.407H325.985L344.399 697.829L325.985 665.251ZM287.705 698.97L305.474 730.407H289.036L271.267 698.97H287.705ZM288.37 732.688H305.475L287.705 764.126H250.918L233.147 732.688H250.253H250.918L251.245 732.108L269.312 700.147L287.378 732.108L287.705 732.688H288.37ZM267.356 698.97H250.918L233.148 730.407H249.587L267.356 698.97ZM229.23 730.407L211.31 698.97H194.869L212.638 730.407H229.23ZM213.286 697.829L231.189 729.237L248.942 697.829L231.189 666.421L213.286 697.829ZM429.005 373.715H428.339H390.059H389.394L389.067 373.135L370.008 339.417L369.69 338.856L370.008 338.294L389.067 304.576L389.394 303.996H390.059H428.339H429.005L429.332 304.576L448.391 338.294L448.708 338.856L448.391 339.417L429.332 373.135L429.005 373.715ZM427.674 371.434L446.088 338.856L427.674 306.277H390.725L372.31 338.856L390.725 371.434H427.674Z" fill="#E1E1E1"/>
</svg>
