<svg width="1600" height="186" viewBox="0 0 1600 186" fill="none" xmlns="http://www.w3.org/2000/svg">
<mask id="mask0" mask-type="alpha" maskUnits="userSpaceOnUse" x="0" y="0" width="1600" height="186">
<path d="M1600 0H0V186H1600V0Z" fill="#C4C4C4"/>
</mask>
<g mask="url(#mask0)">
<g opacity="0.05">
<path d="M301.985 68.7792L315.608 47.2332C317.247 44.6402 320.678 43.8682 323.27 45.5072C325.862 47.1462 326.635 50.5772 324.996 53.1692L308.126 79.8502C305.016 84.7692 298.506 86.2362 293.587 83.1252C288.668 80.0152 287.201 73.5052 290.312 68.5862L308.856 39.2572C313.017 32.6762 321.725 30.7142 328.307 34.8752C334.888 39.0362 336.85 47.7442 332.689 54.3262L317.849 77.7972" stroke="#211749" stroke-width="2" stroke-miterlimit="10"/>
<path d="M454.694 77.3506L465.976 84.0361L494.627 35.6856L483.345 29L454.694 77.3506Z" stroke="#211749" stroke-width="2" stroke-miterlimit="10"/>
<path d="M479.703 35.1572L490.985 41.8432" stroke="#211749" stroke-width="2" stroke-miterlimit="10"/>
<path d="M454.711 77.3281L455.257 89.2661L465.992 84.0141" stroke="#211749" stroke-width="2" stroke-miterlimit="10"/>
<path d="M385.484 88.0912H337.557V30.0312H373.157L385.484 43.1792V88.0912Z" stroke="#211749" stroke-width="2" stroke-miterlimit="10"/>
<path d="M385.484 43.1792H373.157V30.0312" stroke="#211749" stroke-width="2" stroke-miterlimit="10"/>
<path d="M343.856 43.1792H367.956" stroke="#211749" stroke-width="2" stroke-miterlimit="10"/>
<path d="M343.856 57.0083H365.764" stroke="#211749" stroke-width="2" stroke-miterlimit="10"/>
<path d="M357.274 70.2893H379.182" stroke="#211749" stroke-width="2" stroke-miterlimit="10"/>
<path d="M369.324 57.0083H378.911" stroke="#211749" stroke-width="2" stroke-miterlimit="10"/>
<path d="M343.867 70.2893H353.454" stroke="#211749" stroke-width="2" stroke-miterlimit="10"/>
<path d="M438.772 58.2751H428.496V31.4771H454.082V54.0451C454.082 75.4051 444.214 85.278 424.669 87.493L422.25 77.8211C434.542 75.2011 439.78 67.9481 438.772 58.2751Z" stroke="#211749" stroke-width="2" stroke-miterlimit="10"/>
<path d="M403.639 58.2751H393.363V31.4771H418.954V54.0451C418.954 75.4051 409.077 85.278 389.533 87.493L387.118 77.8211C399.409 75.2011 404.647 67.9481 403.639 58.2751Z" stroke="#211749" stroke-width="2" stroke-miterlimit="10"/>
<path d="M561.64 30.1353H497.648V84.7593H561.64V30.1353Z" stroke="#211749" stroke-width="2" stroke-miterlimit="10"/>
<path d="M524.883 69.9814V44.9124L540.645 57.4464L524.883 69.9814Z" stroke="#211749" stroke-width="2" stroke-miterlimit="10"/>
<path d="M278.541 139.353L289.823 146.038L318.474 97.6875L307.192 91.002L278.541 139.353Z" stroke="#211749" stroke-width="2" stroke-miterlimit="10"/>
<path d="M303.547 97.1702L314.828 103.856" stroke="#211749" stroke-width="2" stroke-miterlimit="10"/>
<path d="M278.554 139.34L279.101 151.279L289.836 146.026" stroke="#211749" stroke-width="2" stroke-miterlimit="10"/>
<path d="M209.328 150.104H161.4V92.0442H197L209.328 105.192V150.104Z" stroke="#211749" stroke-width="2" stroke-miterlimit="10"/>
<path d="M209.328 105.192H197.001V92.0442" stroke="#211749" stroke-width="2" stroke-miterlimit="10"/>
<path d="M167.699 105.192H191.8" stroke="#211749" stroke-width="2" stroke-miterlimit="10"/>
<path d="M167.699 119.021H189.608" stroke="#211749" stroke-width="2" stroke-miterlimit="10"/>
<path d="M181.118 132.302H203.026" stroke="#211749" stroke-width="2" stroke-miterlimit="10"/>
<path d="M193.168 119.021H202.755" stroke="#211749" stroke-width="2" stroke-miterlimit="10"/>
<path d="M167.711 132.302H177.298" stroke="#211749" stroke-width="2" stroke-miterlimit="10"/>
<path d="M262.616 120.288H252.34V93.4902H277.926V116.058C277.926 137.418 268.058 147.291 248.513 149.506L246.094 139.834C258.386 137.214 263.624 129.961 262.616 120.288Z" stroke="#211749" stroke-width="2" stroke-miterlimit="10"/>
<path d="M227.483 120.288H217.207V93.4902H242.798V116.058C242.798 137.418 232.921 147.291 213.377 149.506L210.962 139.834C223.253 137.214 228.491 129.961 227.483 120.288Z" stroke="#211749" stroke-width="2" stroke-miterlimit="10"/>
<path d="M385.484 92.1472H321.492V146.771H385.484V92.1472Z" stroke="#211749" stroke-width="2" stroke-miterlimit="10"/>
<path d="M348.727 131.994V106.924L364.489 119.459L348.727 131.994Z" stroke="#211749" stroke-width="2" stroke-miterlimit="10"/>
<path d="M624.269 77.0852H619.103V88.0912L607.101 77.0852H566.936V30.4182H624.269V77.0852Z" stroke="#211749" stroke-width="2" stroke-miterlimit="10"/>
<path d="M691.318 68.7792L704.94 47.2332C706.579 44.6402 710.01 43.8682 712.602 45.5072C715.194 47.1462 715.967 50.5772 714.328 53.1692L697.458 79.8502C694.348 84.7692 687.838 86.2362 682.919 83.1252C678 80.0152 676.533 73.5052 679.644 68.5862L698.188 39.2572C702.349 32.6762 711.057 30.7142 717.639 34.8752C724.221 39.0362 726.182 47.7442 722.021 54.3262L707.181 77.7972" stroke="#211749" stroke-width="2" stroke-miterlimit="10"/>
<path d="M844.013 77.3684L855.295 84.054L883.946 35.7034L872.664 29.0179L844.013 77.3684Z" stroke="#211749" stroke-width="2" stroke-miterlimit="10"/>
<path d="M869.037 35.1572L880.318 41.8432" stroke="#211749" stroke-width="2" stroke-miterlimit="10"/>
<path d="M844.044 77.3284L844.59 89.2664L855.325 84.0144" stroke="#211749" stroke-width="2" stroke-miterlimit="10"/>
<path d="M774.817 88.0912H726.89V30.0312H762.49L774.817 43.1792V88.0912Z" stroke="#211749" stroke-width="2" stroke-miterlimit="10"/>
<path d="M774.817 43.1792H762.49V30.0312" stroke="#211749" stroke-width="2" stroke-miterlimit="10"/>
<path d="M733.189 43.1792H757.289" stroke="#211749" stroke-width="2" stroke-miterlimit="10"/>
<path d="M733.189 57.0083H755.097" stroke="#211749" stroke-width="2" stroke-miterlimit="10"/>
<path d="M746.607 70.2893H768.515" stroke="#211749" stroke-width="2" stroke-miterlimit="10"/>
<path d="M758.658 57.0083H768.244" stroke="#211749" stroke-width="2" stroke-miterlimit="10"/>
<path d="M733.2 70.2893H742.787" stroke="#211749" stroke-width="2" stroke-miterlimit="10"/>
<path d="M828.106 58.2751H817.83V31.4771H843.416V54.0451C843.416 75.4051 833.548 85.278 814.003 87.493L811.584 77.8211C823.875 75.2011 829.113 67.9481 828.106 58.2751Z" stroke="#211749" stroke-width="2" stroke-miterlimit="10"/>
<path d="M792.973 58.2751H782.697V31.4771H808.288V54.0451C808.288 75.4051 798.411 85.278 778.867 87.493L776.452 77.8211C788.742 75.2011 793.98 67.9481 792.973 58.2751Z" stroke="#211749" stroke-width="2" stroke-miterlimit="10"/>
<path d="M673.64 41.1531H664.799V68.5531H673.64V41.1531Z" stroke="#211749" stroke-width="2" stroke-miterlimit="10"/>
<path d="M654.642 85.9561C665.257 67.8441 664.799 68.5531 664.799 68.5531H673.64C673.64 68.5531 672.956 70.1451 662.341 89.5831" stroke="#211749" stroke-width="2" stroke-miterlimit="10"/>
<path d="M673.197 44.2461C676.127 44.2461 678.502 46.6211 678.502 49.5511V58.3851C678.502 61.3151 676.127 63.6901 673.197 63.6901" stroke="#211749" stroke-width="2" stroke-miterlimit="10"/>
<path d="M664.799 41.1531L631.1 30.4341V80.1581L664.799 68.5531" stroke="#211749" stroke-width="2" stroke-miterlimit="10"/>
<path d="M631.1 60.1601C628.169 60.1601 625.793 57.7841 625.793 54.8531C625.793 51.9221 628.169 49.5461 631.1 49.5461" stroke="#211749" stroke-width="2" stroke-miterlimit="10"/>
<path d="M662.341 89.5831C661.339 91.7091 658.804 92.6201 656.678 91.6181C654.552 90.6161 653.641 88.0811 654.643 85.9551" stroke="#211749" stroke-width="2" stroke-miterlimit="10"/>
<path d="M950.973 30.1353H886.981V84.7593H950.973V30.1353Z" stroke="#211749" stroke-width="2" stroke-miterlimit="10"/>
<path d="M914.217 69.9814V44.9124L929.978 57.4464L914.217 69.9814Z" stroke="#211749" stroke-width="2" stroke-miterlimit="10"/>
<path d="M448.113 139.097H442.947V150.104L430.945 139.097H390.779V92.4312H448.113V139.097Z" stroke="#211749" stroke-width="2" stroke-miterlimit="10"/>
<path d="M515.162 130.791L528.784 109.245C530.423 106.652 533.854 105.88 536.446 107.519C539.038 109.158 539.811 112.589 538.172 115.181L521.302 141.862C518.192 146.781 511.682 148.248 506.763 145.137C501.844 142.027 500.377 135.517 503.488 130.598L522.032 101.269C526.193 94.6882 534.901 92.7262 541.483 96.8872C548.065 101.048 550.026 109.756 545.865 116.338L531.025 139.809" stroke="#211749" stroke-width="2" stroke-miterlimit="10"/>
<path d="M667.861 139.371L679.142 146.056L707.794 97.7058L696.512 91.0203L667.861 139.371Z" stroke="#211749" stroke-width="2" stroke-miterlimit="10"/>
<path d="M692.88 97.1702L704.162 103.856" stroke="#211749" stroke-width="2" stroke-miterlimit="10"/>
<path d="M667.888 139.34L668.434 151.279L679.169 146.026" stroke="#211749" stroke-width="2" stroke-miterlimit="10"/>
<path d="M598.661 150.104H550.734V92.0442H586.334L598.661 105.192V150.104Z" stroke="#211749" stroke-width="2" stroke-miterlimit="10"/>
<path d="M598.661 105.192H586.334V92.0442" stroke="#211749" stroke-width="2" stroke-miterlimit="10"/>
<path d="M557.033 105.192H581.133" stroke="#211749" stroke-width="2" stroke-miterlimit="10"/>
<path d="M557.033 119.021H578.941" stroke="#211749" stroke-width="2" stroke-miterlimit="10"/>
<path d="M570.451 132.302H592.359" stroke="#211749" stroke-width="2" stroke-miterlimit="10"/>
<path d="M582.501 119.021H592.088" stroke="#211749" stroke-width="2" stroke-miterlimit="10"/>
<path d="M557.044 132.302H566.631" stroke="#211749" stroke-width="2" stroke-miterlimit="10"/>
<path d="M651.949 120.288H641.673V93.4902H667.259V116.058C667.259 137.418 657.391 147.291 637.846 149.506L635.427 139.834C647.719 137.214 652.957 129.961 651.949 120.288Z" stroke="#211749" stroke-width="2" stroke-miterlimit="10"/>
<path d="M616.817 120.288H606.541V93.4902H632.132V116.058C632.132 137.418 622.255 147.291 602.711 149.506L600.296 139.834C612.586 137.214 617.824 129.961 616.817 120.288Z" stroke="#211749" stroke-width="2" stroke-miterlimit="10"/>
<path d="M497.484 103.165H488.643V130.565H497.484V103.165Z" stroke="#211749" stroke-width="2" stroke-miterlimit="10"/>
<path d="M478.486 147.969C489.101 129.857 488.643 130.566 488.643 130.566H497.484C497.484 130.566 496.8 132.158 486.185 151.596" stroke="#211749" stroke-width="2" stroke-miterlimit="10"/>
<path d="M497.041 106.259C499.971 106.259 502.346 108.634 502.346 111.564V120.398C502.346 123.328 499.971 125.703 497.041 125.703" stroke="#211749" stroke-width="2" stroke-miterlimit="10"/>
<path d="M488.643 103.165L454.943 92.4473V142.171L488.643 130.566" stroke="#211749" stroke-width="2" stroke-miterlimit="10"/>
<path d="M454.943 122.172C452.012 122.172 449.636 119.796 449.636 116.865C449.636 113.934 452.012 111.558 454.943 111.558" stroke="#211749" stroke-width="2" stroke-miterlimit="10"/>
<path d="M486.184 151.596C485.182 153.722 482.647 154.633 480.521 153.631C478.395 152.629 477.484 150.094 478.486 147.968" stroke="#211749" stroke-width="2" stroke-miterlimit="10"/>
<path d="M774.817 92.1472H710.825V146.771H774.817V92.1472Z" stroke="#211749" stroke-width="2" stroke-miterlimit="10"/>
<path d="M738.06 131.994V106.924L753.822 119.459L738.06 131.994Z" stroke="#211749" stroke-width="2" stroke-miterlimit="10"/>
<path d="M234.936 203.387H229.77V214.393L217.768 203.387H177.602V156.72H234.936V203.387Z" stroke="#211749" stroke-width="2" stroke-miterlimit="10"/>
<path d="M301.985 195.081L315.608 173.535C317.247 170.942 320.678 170.17 323.27 171.809C325.862 173.448 326.635 176.879 324.996 179.471L308.126 206.152C305.016 211.071 298.506 212.538 293.587 209.427C288.668 206.317 287.201 199.807 290.312 194.888L308.856 165.559C313.017 158.978 321.725 157.016 328.307 161.177C334.888 165.338 336.85 174.046 332.689 180.628L317.849 204.099" stroke="#211749" stroke-width="2" stroke-miterlimit="10"/>
<path d="M454.688 203.647L465.97 210.333L494.622 161.982L483.34 155.297L454.688 203.647Z" stroke="#211749" stroke-width="2" stroke-miterlimit="10"/>
<path d="M479.703 161.459L490.985 168.145" stroke="#211749" stroke-width="2" stroke-miterlimit="10"/>
<path d="M385.484 214.393H337.557V156.333H373.157L385.484 169.481V214.393Z" stroke="#211749" stroke-width="2" stroke-miterlimit="10"/>
<path d="M385.484 169.481H373.157V156.333" stroke="#211749" stroke-width="2" stroke-miterlimit="10"/>
<path d="M343.856 169.481H367.956" stroke="#211749" stroke-width="2" stroke-miterlimit="10"/>
<path d="M343.856 183.31H365.764" stroke="#211749" stroke-width="2" stroke-miterlimit="10"/>
<path d="M369.324 183.31H378.911" stroke="#211749" stroke-width="2" stroke-miterlimit="10"/>
<path d="M438.772 184.577H428.496V157.779H454.082V180.347C454.082 201.707 444.214 211.58 424.669 213.795L422.25 204.123C434.542 201.503 439.78 194.25 438.772 184.577Z" stroke="#211749" stroke-width="2" stroke-miterlimit="10"/>
<path d="M403.639 184.577H393.363V157.779H418.954V180.347C418.954 201.707 409.077 211.58 389.533 213.795L387.118 204.123C399.409 201.503 404.647 194.25 403.639 184.577Z" stroke="#211749" stroke-width="2" stroke-miterlimit="10"/>
<path d="M284.307 167.455H275.466V194.855H284.307V167.455Z" stroke="#211749" stroke-width="2" stroke-miterlimit="10"/>
<path d="M283.864 170.548C286.794 170.548 289.169 172.923 289.169 175.852V184.686C289.169 187.616 286.794 189.991 283.864 189.991" stroke="#211749" stroke-width="2" stroke-miterlimit="10"/>
<path d="M275.466 167.455L241.766 156.736V206.46L275.466 194.855" stroke="#211749" stroke-width="2" stroke-miterlimit="10"/>
<path d="M241.766 186.462C238.835 186.462 236.459 184.086 236.459 181.155C236.459 178.224 238.835 175.848 241.766 175.848" stroke="#211749" stroke-width="2" stroke-miterlimit="10"/>
<path d="M561.64 156.436H497.648V211.06H561.64V156.436Z" stroke="#211749" stroke-width="2" stroke-miterlimit="10"/>
<path d="M524.883 196.283V171.214L540.645 183.748L524.883 196.283Z" stroke="#211749" stroke-width="2" stroke-miterlimit="10"/>
<path d="M63.5822 203.629L74.8641 210.314L103.516 161.964L92.2339 155.278L63.5822 203.629Z" stroke="#211749" stroke-width="2" stroke-miterlimit="10"/>
<path d="M88.5851 161.459L99.8661 168.145" stroke="#211749" stroke-width="2" stroke-miterlimit="10"/>
<path d="M47.654 184.577H37.377V157.779H62.963V180.347C62.963 201.707 53.095 211.58 33.55 213.795L31.131 204.123C43.423 201.503 48.661 194.25 47.654 184.577Z" stroke="#211749" stroke-width="2" stroke-miterlimit="10"/>
<path d="M12.521 184.577H2.245V157.779H27.836V180.347C27.836 201.707 17.959 211.58 -1.585 213.795L-4 204.123C8.291 201.503 13.528 194.25 12.521 184.577Z" stroke="#211749" stroke-width="2" stroke-miterlimit="10"/>
<path d="M170.521 156.436H106.529V211.06H170.521V156.436Z" stroke="#211749" stroke-width="2" stroke-miterlimit="10"/>
<path d="M133.765 196.283V171.214L149.526 183.748L133.765 196.283Z" stroke="#211749" stroke-width="2" stroke-miterlimit="10"/>
<path d="M624.269 203.387H619.103V214.393L607.101 203.387H566.936V156.72H624.269V203.387Z" stroke="#211749" stroke-width="2" stroke-miterlimit="10"/>
<path d="M691.318 195.081L704.94 173.535C706.579 170.942 710.01 170.17 712.602 171.809C715.194 173.448 715.967 176.879 714.328 179.471L697.458 206.152C694.348 211.071 687.838 212.538 682.919 209.427C678 206.316 676.533 199.807 679.644 194.888L698.188 165.559C702.349 158.978 711.057 157.016 717.639 161.177C724.221 165.338 726.182 174.046 722.021 180.628L707.181 204.099" stroke="#211749" stroke-width="2" stroke-miterlimit="10"/>
<path d="M844.007 203.666L855.289 210.351L883.941 162L872.659 155.315L844.007 203.666Z" stroke="#211749" stroke-width="2" stroke-miterlimit="10"/>
<path d="M869.037 161.459L880.318 168.145" stroke="#211749" stroke-width="2" stroke-miterlimit="10"/>
<path d="M774.817 214.393H726.89V156.333H762.49L774.817 169.481V214.393Z" stroke="#211749" stroke-width="2" stroke-miterlimit="10"/>
<path d="M774.817 169.481H762.49V156.333" stroke="#211749" stroke-width="2" stroke-miterlimit="10"/>
<path d="M733.189 169.481H757.289" stroke="#211749" stroke-width="2" stroke-miterlimit="10"/>
<path d="M733.189 183.31H755.097" stroke="#211749" stroke-width="2" stroke-miterlimit="10"/>
<path d="M758.658 183.31H768.244" stroke="#211749" stroke-width="2" stroke-miterlimit="10"/>
<path d="M828.106 184.577H817.83V157.779H843.416V180.347C843.416 201.707 833.548 211.58 814.003 213.795L811.584 204.123C823.875 201.503 829.113 194.25 828.106 184.577Z" stroke="#211749" stroke-width="2" stroke-miterlimit="10"/>
<path d="M792.973 184.577H782.697V157.779H808.288V180.347C808.288 201.707 798.411 211.58 778.867 213.795L776.452 204.123C788.742 201.503 793.98 194.25 792.973 184.577Z" stroke="#211749" stroke-width="2" stroke-miterlimit="10"/>
<path d="M673.64 167.455H664.799V194.855H673.64V167.455Z" stroke="#211749" stroke-width="2" stroke-miterlimit="10"/>
<path d="M673.197 170.548C676.127 170.548 678.502 172.923 678.502 175.852V184.686C678.502 187.616 676.127 189.991 673.197 189.991" stroke="#211749" stroke-width="2" stroke-miterlimit="10"/>
<path d="M664.799 167.455L631.1 156.736V206.46L664.799 194.855" stroke="#211749" stroke-width="2" stroke-miterlimit="10"/>
<path d="M631.1 186.462C628.169 186.462 625.793 184.086 625.793 181.155C625.793 178.224 628.169 175.848 631.1 175.848" stroke="#211749" stroke-width="2" stroke-miterlimit="10"/>
<path d="M950.973 156.436H886.981V211.06H950.973V156.436Z" stroke="#211749" stroke-width="2" stroke-miterlimit="10"/>
<path d="M914.217 196.283V171.214L929.978 183.748L914.217 196.283Z" stroke="#211749" stroke-width="2" stroke-miterlimit="10"/>
<path d="M1012.94 77.0852H1007.78V88.0912L995.774 77.0852H955.609V30.4182H1012.94V77.0852Z" stroke="#211749" stroke-width="2" stroke-miterlimit="10"/>
<path d="M1079.99 68.7792L1093.61 47.2332C1095.25 44.6402 1098.68 43.8682 1101.28 45.5072C1103.87 47.1462 1104.64 50.5772 1103 53.1692L1086.13 79.8502C1083.02 84.7692 1076.51 86.2362 1071.59 83.1252C1066.67 80.0152 1065.21 73.5052 1068.32 68.5862L1086.86 39.2572C1091.02 32.6762 1099.73 30.7142 1106.31 34.8752C1112.89 39.0362 1114.86 47.7442 1110.69 54.3262L1095.85 77.7972" stroke="#211749" stroke-width="2" stroke-miterlimit="10"/>
<path d="M1232.67 77.3865L1243.95 84.072L1272.61 35.7214L1261.32 29.0359L1232.67 77.3865Z" stroke="#211749" stroke-width="2" stroke-miterlimit="10"/>
<path d="M1257.71 35.1572L1268.99 41.8432" stroke="#211749" stroke-width="2" stroke-miterlimit="10"/>
<path d="M1232.72 77.3281L1233.26 89.2661L1244 84.0141" stroke="#211749" stroke-width="2" stroke-miterlimit="10"/>
<path d="M1163.49 88.0912H1115.56V30.0312H1151.16L1163.49 43.1792V88.0912Z" stroke="#211749" stroke-width="2" stroke-miterlimit="10"/>
<path d="M1163.49 43.1792H1151.16V30.0312" stroke="#211749" stroke-width="2" stroke-miterlimit="10"/>
<path d="M1121.86 43.1792H1145.96" stroke="#211749" stroke-width="2" stroke-miterlimit="10"/>
<path d="M1121.86 57.0083H1143.77" stroke="#211749" stroke-width="2" stroke-miterlimit="10"/>
<path d="M1135.28 70.2893H1157.19" stroke="#211749" stroke-width="2" stroke-miterlimit="10"/>
<path d="M1147.33 57.0083H1156.92" stroke="#211749" stroke-width="2" stroke-miterlimit="10"/>
<path d="M1121.87 70.2893H1131.46" stroke="#211749" stroke-width="2" stroke-miterlimit="10"/>
<path d="M1216.78 58.2751H1206.5V31.4771H1232.09V54.0451C1232.09 75.4051 1222.22 85.278 1202.68 87.493L1200.26 77.8211C1212.55 75.2011 1217.79 67.9481 1216.78 58.2751Z" stroke="#211749" stroke-width="2" stroke-miterlimit="10"/>
<path d="M1181.65 58.2751H1171.37V31.4771H1196.96V54.0451C1196.96 75.4051 1187.08 85.278 1167.54 87.493L1165.12 77.8211C1177.42 75.2011 1182.65 67.9481 1181.65 58.2751Z" stroke="#211749" stroke-width="2" stroke-miterlimit="10"/>
<path d="M1062.31 41.1531H1053.47V68.5531H1062.31V41.1531Z" stroke="#211749" stroke-width="2" stroke-miterlimit="10"/>
<path d="M1043.31 85.9561C1053.93 67.8441 1053.47 68.5531 1053.47 68.5531H1062.31C1062.31 68.5531 1061.63 70.1451 1051.01 89.5831" stroke="#211749" stroke-width="2" stroke-miterlimit="10"/>
<path d="M1061.87 44.2461C1064.8 44.2461 1067.17 46.6211 1067.17 49.5511V58.3851C1067.17 61.3151 1064.8 63.6901 1061.87 63.6901" stroke="#211749" stroke-width="2" stroke-miterlimit="10"/>
<path d="M1053.47 41.1531L1019.77 30.4341V80.1581L1053.47 68.5531" stroke="#211749" stroke-width="2" stroke-miterlimit="10"/>
<path d="M1019.77 60.1601C1016.84 60.1601 1014.47 57.7841 1014.47 54.8531C1014.47 51.9221 1016.84 49.5461 1019.77 49.5461" stroke="#211749" stroke-width="2" stroke-miterlimit="10"/>
<path d="M1051.01 89.5831C1050.01 91.7091 1047.48 92.6201 1045.35 91.6181C1043.23 90.6161 1042.31 88.0811 1043.32 85.9551" stroke="#211749" stroke-width="2" stroke-miterlimit="10"/>
<path d="M1339.65 30.1353H1275.65V84.7593H1339.65V30.1353Z" stroke="#211749" stroke-width="2" stroke-miterlimit="10"/>
<path d="M1302.89 69.9814V44.9124L1318.65 57.4464L1302.89 69.9814Z" stroke="#211749" stroke-width="2" stroke-miterlimit="10"/>
<path d="M836.786 139.097H831.62V150.104L819.618 139.097H779.453V92.4312H836.786V139.097Z" stroke="#211749" stroke-width="2" stroke-miterlimit="10"/>
<path d="M903.835 130.791L917.458 109.245C919.097 106.652 922.528 105.88 925.12 107.519C927.712 109.158 928.485 112.589 926.846 115.181L909.976 141.862C906.866 146.781 900.356 148.248 895.437 145.137C890.518 142.027 889.051 135.517 892.161 130.598L910.705 101.269C914.866 94.6882 923.574 92.7262 930.156 96.8872C936.737 101.048 938.699 109.756 934.538 116.338L919.698 139.809" stroke="#211749" stroke-width="2" stroke-miterlimit="10"/>
<path d="M1056.52 139.389L1067.8 146.074L1096.45 97.7236L1085.17 91.0381L1056.52 139.389Z" stroke="#211749" stroke-width="2" stroke-miterlimit="10"/>
<path d="M1081.55 97.1702L1092.83 103.856" stroke="#211749" stroke-width="2" stroke-miterlimit="10"/>
<path d="M1056.56 139.34L1057.11 151.279L1067.84 146.026" stroke="#211749" stroke-width="2" stroke-miterlimit="10"/>
<path d="M987.334 150.104H939.407V92.0442H975.007L987.334 105.192V150.104Z" stroke="#211749" stroke-width="2" stroke-miterlimit="10"/>
<path d="M987.334 105.192H975.007V92.0442" stroke="#211749" stroke-width="2" stroke-miterlimit="10"/>
<path d="M945.706 105.192H969.806" stroke="#211749" stroke-width="2" stroke-miterlimit="10"/>
<path d="M945.706 119.021H967.614" stroke="#211749" stroke-width="2" stroke-miterlimit="10"/>
<path d="M959.124 132.302H981.032" stroke="#211749" stroke-width="2" stroke-miterlimit="10"/>
<path d="M971.174 119.021H980.761" stroke="#211749" stroke-width="2" stroke-miterlimit="10"/>
<path d="M945.717 132.302H955.304" stroke="#211749" stroke-width="2" stroke-miterlimit="10"/>
<path d="M1040.62 120.288H1030.35V93.4902H1055.93V116.058C1055.93 137.418 1046.06 147.291 1026.52 149.506L1024.1 139.834C1036.39 137.214 1041.63 129.961 1040.62 120.288Z" stroke="#211749" stroke-width="2" stroke-miterlimit="10"/>
<path d="M1005.49 120.288H995.214V93.4902H1020.8V116.058C1020.8 137.418 1010.93 147.291 991.384 149.506L988.969 139.834C1001.26 137.214 1006.5 129.961 1005.49 120.288Z" stroke="#211749" stroke-width="2" stroke-miterlimit="10"/>
<path d="M886.157 103.165H877.316V130.565H886.157V103.165Z" stroke="#211749" stroke-width="2" stroke-miterlimit="10"/>
<path d="M867.159 147.969C877.774 129.857 877.316 130.566 877.316 130.566H886.157C886.157 130.566 885.473 132.158 874.858 151.596" stroke="#211749" stroke-width="2" stroke-miterlimit="10"/>
<path d="M885.714 106.259C888.644 106.259 891.019 108.634 891.019 111.564V120.398C891.019 123.328 888.644 125.703 885.714 125.703" stroke="#211749" stroke-width="2" stroke-miterlimit="10"/>
<path d="M877.316 103.165L843.617 92.4473V142.171L877.316 130.566" stroke="#211749" stroke-width="2" stroke-miterlimit="10"/>
<path d="M843.617 122.172C840.686 122.172 838.31 119.796 838.31 116.865C838.31 113.934 840.686 111.558 843.617 111.558" stroke="#211749" stroke-width="2" stroke-miterlimit="10"/>
<path d="M874.858 151.596C873.856 153.722 871.321 154.633 869.195 153.631C867.069 152.629 866.158 150.094 867.16 147.968" stroke="#211749" stroke-width="2" stroke-miterlimit="10"/>
<path d="M1163.49 92.1472H1099.5V146.771H1163.49V92.1472Z" stroke="#211749" stroke-width="2" stroke-miterlimit="10"/>
<path d="M1126.73 131.994V106.924L1142.5 119.459L1126.73 131.994Z" stroke="#211749" stroke-width="2" stroke-miterlimit="10"/>
<path d="M1226.12 139.097H1220.95V150.104L1208.95 139.097H1168.79V92.4312H1226.12V139.097Z" stroke="#211749" stroke-width="2" stroke-miterlimit="10"/>
<path d="M1293.17 130.791L1306.79 109.245C1308.43 106.652 1311.86 105.88 1314.45 107.519C1317.04 109.158 1317.82 112.589 1316.18 115.181L1299.31 141.862C1296.2 146.781 1289.69 148.248 1284.77 145.137C1279.85 142.027 1278.38 135.517 1281.49 130.598L1300.04 101.269C1304.2 94.6882 1312.91 92.7262 1319.49 96.8872C1326.07 101.048 1328.03 109.756 1323.87 116.338L1309.03 139.809" stroke="#211749" stroke-width="2" stroke-miterlimit="10"/>
<path d="M1445.84 139.407L1457.12 146.092L1485.77 97.7417L1474.49 91.0562L1445.84 139.407Z" stroke="#211749" stroke-width="2" stroke-miterlimit="10"/>
<path d="M1470.89 97.1702L1482.17 103.856" stroke="#211749" stroke-width="2" stroke-miterlimit="10"/>
<path d="M1445.89 139.34L1446.44 151.279L1457.18 146.026" stroke="#211749" stroke-width="2" stroke-miterlimit="10"/>
<path d="M1376.67 150.104H1328.74V92.0442H1364.34L1376.67 105.192V150.104Z" stroke="#211749" stroke-width="2" stroke-miterlimit="10"/>
<path d="M1376.67 105.192H1364.34V92.0442" stroke="#211749" stroke-width="2" stroke-miterlimit="10"/>
<path d="M1335.04 105.192H1359.14" stroke="#211749" stroke-width="2" stroke-miterlimit="10"/>
<path d="M1335.04 119.021H1356.95" stroke="#211749" stroke-width="2" stroke-miterlimit="10"/>
<path d="M1348.46 132.302H1370.37" stroke="#211749" stroke-width="2" stroke-miterlimit="10"/>
<path d="M1360.51 119.021H1370.09" stroke="#211749" stroke-width="2" stroke-miterlimit="10"/>
<path d="M1335.05 132.302H1344.64" stroke="#211749" stroke-width="2" stroke-miterlimit="10"/>
<path d="M1429.96 120.288H1419.68V93.4902H1445.27V116.058C1445.27 137.418 1435.4 147.291 1415.85 149.506L1413.43 139.834C1425.73 137.214 1430.96 129.961 1429.96 120.288Z" stroke="#211749" stroke-width="2" stroke-miterlimit="10"/>
<path d="M1394.82 120.288H1384.55V93.4902H1410.14V116.058C1410.14 137.418 1400.26 147.291 1380.72 149.506L1378.3 139.834C1390.59 137.214 1395.83 129.961 1394.82 120.288Z" stroke="#211749" stroke-width="2" stroke-miterlimit="10"/>
<path d="M1275.49 103.165H1266.65V130.565H1275.49V103.165Z" stroke="#211749" stroke-width="2" stroke-miterlimit="10"/>
<path d="M1256.49 147.969C1267.11 129.857 1266.65 130.566 1266.65 130.566H1275.49C1275.49 130.566 1274.81 132.158 1264.19 151.596" stroke="#211749" stroke-width="2" stroke-miterlimit="10"/>
<path d="M1275.05 106.259C1277.98 106.259 1280.35 108.634 1280.35 111.564V120.398C1280.35 123.328 1277.98 125.703 1275.05 125.703" stroke="#211749" stroke-width="2" stroke-miterlimit="10"/>
<path d="M1266.65 103.165L1232.95 92.4473V142.171L1266.65 130.566" stroke="#211749" stroke-width="2" stroke-miterlimit="10"/>
<path d="M1232.95 122.172C1230.02 122.172 1227.64 119.796 1227.64 116.865C1227.64 113.934 1230.02 111.558 1232.95 111.558" stroke="#211749" stroke-width="2" stroke-miterlimit="10"/>
<path d="M1264.19 151.596C1263.19 153.722 1260.65 154.633 1258.53 153.631C1256.4 152.629 1255.49 150.094 1256.49 147.968" stroke="#211749" stroke-width="2" stroke-miterlimit="10"/>
<path d="M1012.94 203.387H1007.78V214.393L995.774 203.387H955.609V156.72H1012.94V203.387Z" stroke="#211749" stroke-width="2" stroke-miterlimit="10"/>
<path d="M1079.99 195.081L1093.61 173.535C1095.25 170.942 1098.68 170.17 1101.28 171.809C1103.87 173.448 1104.64 176.879 1103 179.471L1086.13 206.152C1083.02 211.071 1076.51 212.538 1071.59 209.427C1066.67 206.317 1065.21 199.807 1068.32 194.888L1086.86 165.559C1091.02 158.978 1099.73 157.016 1106.31 161.177C1112.89 165.338 1114.86 174.046 1110.69 180.628L1095.85 204.099" stroke="#211749" stroke-width="2" stroke-miterlimit="10"/>
<path d="M1232.67 203.684L1243.95 210.369L1272.6 162.019L1261.32 155.333L1232.67 203.684Z" stroke="#211749" stroke-width="2" stroke-miterlimit="10"/>
<path d="M1257.71 161.459L1268.99 168.145" stroke="#211749" stroke-width="2" stroke-miterlimit="10"/>
<path d="M1163.49 214.393H1115.56V156.333H1151.16L1163.49 169.481V214.393Z" stroke="#211749" stroke-width="2" stroke-miterlimit="10"/>
<path d="M1163.49 169.481H1151.16V156.333" stroke="#211749" stroke-width="2" stroke-miterlimit="10"/>
<path d="M1121.86 169.481H1145.96" stroke="#211749" stroke-width="2" stroke-miterlimit="10"/>
<path d="M1121.86 183.31H1143.77" stroke="#211749" stroke-width="2" stroke-miterlimit="10"/>
<path d="M1147.33 183.31H1156.92" stroke="#211749" stroke-width="2" stroke-miterlimit="10"/>
<path d="M1216.78 184.577H1206.5V157.779H1232.09V180.347C1232.09 201.707 1222.22 211.58 1202.68 213.795L1200.26 204.123C1212.55 201.503 1217.79 194.25 1216.78 184.577Z" stroke="#211749" stroke-width="2" stroke-miterlimit="10"/>
<path d="M1181.65 184.577H1171.37V157.779H1196.96V180.347C1196.96 201.707 1187.08 211.58 1167.54 213.795L1165.12 204.123C1177.42 201.503 1182.65 194.25 1181.65 184.577Z" stroke="#211749" stroke-width="2" stroke-miterlimit="10"/>
<path d="M1062.31 167.455H1053.47V194.855H1062.31V167.455Z" stroke="#211749" stroke-width="2" stroke-miterlimit="10"/>
<path d="M1061.87 170.548C1064.8 170.548 1067.17 172.923 1067.17 175.852V184.686C1067.17 187.616 1064.8 189.991 1061.87 189.991" stroke="#211749" stroke-width="2" stroke-miterlimit="10"/>
<path d="M1053.47 167.455L1019.77 156.736V206.46L1053.47 194.855" stroke="#211749" stroke-width="2" stroke-miterlimit="10"/>
<path d="M1019.77 186.462C1016.84 186.462 1014.47 184.086 1014.47 181.155C1014.47 178.224 1016.84 175.848 1019.77 175.848" stroke="#211749" stroke-width="2" stroke-miterlimit="10"/>
<path d="M1339.65 156.436H1275.65V211.06H1339.65V156.436Z" stroke="#211749" stroke-width="2" stroke-miterlimit="10"/>
<path d="M1302.89 196.283V171.214L1318.65 183.748L1302.89 196.283Z" stroke="#211749" stroke-width="2" stroke-miterlimit="10"/>
<path d="M1402.28 203.387H1397.11V214.393L1385.11 203.387H1344.94V156.72H1402.28V203.387Z" stroke="#211749" stroke-width="2" stroke-miterlimit="10"/>
<path d="M1469.32 195.081L1482.95 173.535C1484.59 170.942 1488.02 170.17 1490.61 171.809C1493.2 173.448 1493.97 176.879 1492.33 179.471L1475.46 206.152C1472.35 211.071 1465.84 212.538 1460.93 209.427C1456.01 206.317 1454.54 199.807 1457.65 194.888L1476.19 165.559C1480.35 158.978 1489.06 157.016 1495.64 161.177C1502.23 165.338 1504.19 174.046 1500.03 180.628L1485.19 204.099" stroke="#211749" stroke-width="2" stroke-miterlimit="10"/>
<path d="M1552.82 214.393H1504.9V156.333H1540.5L1552.82 169.481V214.393Z" stroke="#211749" stroke-width="2" stroke-miterlimit="10"/>
<path d="M1552.82 169.481H1540.5V156.333" stroke="#211749" stroke-width="2" stroke-miterlimit="10"/>
<path d="M1511.19 169.481H1535.3" stroke="#211749" stroke-width="2" stroke-miterlimit="10"/>
<path d="M1511.19 183.31H1533.1" stroke="#211749" stroke-width="2" stroke-miterlimit="10"/>
<path d="M1536.66 183.31H1546.25" stroke="#211749" stroke-width="2" stroke-miterlimit="10"/>
<path d="M1606.11 184.577H1595.84V157.779H1621.42V180.347C1621.42 201.707 1611.55 211.58 1592.01 213.795L1589.59 204.123C1601.88 201.503 1607.12 194.25 1606.11 184.577Z" stroke="#211749" stroke-width="2" stroke-miterlimit="10"/>
<path d="M1570.98 184.577H1560.7V157.779H1586.29V180.347C1586.29 201.707 1576.42 211.58 1556.87 213.795L1554.46 204.123C1566.75 201.503 1571.99 194.25 1570.98 184.577Z" stroke="#211749" stroke-width="2" stroke-miterlimit="10"/>
<path d="M1451.65 167.455H1442.8V194.855H1451.65V167.455Z" stroke="#211749" stroke-width="2" stroke-miterlimit="10"/>
<path d="M1451.2 170.548C1454.13 170.548 1456.51 172.923 1456.51 175.852V184.686C1456.51 187.616 1454.13 189.991 1451.2 189.991" stroke="#211749" stroke-width="2" stroke-miterlimit="10"/>
<path d="M1442.8 167.455L1409.11 156.736V206.46L1442.8 194.855" stroke="#211749" stroke-width="2" stroke-miterlimit="10"/>
<path d="M1409.11 186.462C1406.17 186.462 1403.8 184.086 1403.8 181.155C1403.8 178.224 1406.17 175.848 1409.11 175.848" stroke="#211749" stroke-width="2" stroke-miterlimit="10"/>
</g>
</g>
</svg>
