<svg width="32" height="26" viewBox="0 0 32 26" fill="none" xmlns="http://www.w3.org/2000/svg">
<path d="M0.0173611 1.81511C0.0173611 0.812651 0.813299 0 1.79514 0H30.2222C31.2041 0 32 0.812651 32 1.81511V22.3698C32 24.3747 30.4081 26 28.4444 26H3.55556C1.59188 26 0 24.3747 0 22.3698V2.4036C0 2.31717 0.00591744 2.23214 0.0173611 2.14893V1.81511ZM3.55556 5.85146V22.3698H28.4444V5.85209L19.7715 14.7071C17.6887 16.8336 14.3119 16.8336 12.2291 14.7071L3.55556 5.85146ZM6.3508 3.5715H25.6498L17.2574 12.1402C16.5631 12.849 15.4375 12.849 14.7432 12.1402L6.3508 3.5715Z" fill="black"/>
<path d="M0.0173611 1.81511C0.0173611 0.812651 0.813299 0 1.79514 0H30.2222C31.2041 0 32 0.812651 32 1.81511V22.3698C32 24.3747 30.4081 26 28.4444 26H3.55556C1.59188 26 0 24.3747 0 22.3698V2.4036C0 2.31717 0.00591744 2.23214 0.0173611 2.14893V1.81511ZM3.55556 5.85146V22.3698H28.4444V5.85209L19.7715 14.7071C17.6887 16.8336 14.3119 16.8336 12.2291 14.7071L3.55556 5.85146ZM6.3508 3.5715H25.6498L17.2574 12.1402C16.5631 12.849 15.4375 12.849 14.7432 12.1402L6.3508 3.5715Z" stroke="black"/>
</svg>
