<svg width="50" height="50" viewBox="0 0 50 50" fill="none" xmlns="http://www.w3.org/2000/svg">
<circle cx="25" cy="25" r="25" fill="#11D553"/>
<path fill-rule="evenodd" clip-rule="evenodd" d="M8.85303 25.056C8.85303 15.6363 16.1613 8 25.1765 8C34.1918 8 41.5001 15.6363 41.5001 25.056C41.5001 34.4758 34.1918 42.1121 25.1765 42.1121C21.8822 42.1121 18.8158 41.0924 16.2506 39.3386C15.4576 38.6466 12.9232 38.0399 9.42861 41.683L9.40177 41.711L9.31937 41.6247L9.23688 41.5387L9.26375 41.5106C12.7504 37.8593 12.1697 35.2111 11.5074 34.3825C9.82892 31.7022 8.85303 28.4982 8.85303 25.056ZM25.1764 38.4574C32.2598 38.4574 38.002 32.4575 38.002 25.0562C38.002 17.655 32.2598 11.6551 25.1764 11.6551C18.093 11.6551 12.3508 17.655 12.3508 25.0562C12.3508 32.4575 18.093 38.4574 25.1764 38.4574Z" fill="white"/>
<path d="M28.9504 34.0717C28.3934 34.0717 27.8411 33.9688 27.301 33.7637C24.9217 32.8606 22.7131 31.3897 20.9141 29.51C19.1151 27.6303 17.7073 25.3226 16.843 22.8365C16.5653 22.0376 16.4833 21.2128 16.5995 20.3851C16.7083 19.6099 16.9957 18.8572 17.4307 18.2086C17.8676 17.557 18.45 17.0152 19.115 16.6415C19.8242 16.243 20.5982 16.041 21.4157 16.041C21.67 16.041 21.8897 16.2266 21.943 16.4863L22.7894 20.6135C22.8277 20.8004 22.7728 20.9948 22.6434 21.13L21.1972 22.6411C22.5615 25.4754 24.7754 27.7886 27.4879 29.2141L28.9342 27.703C29.0635 27.5679 29.2497 27.5105 29.4285 27.5505L33.3784 28.4348C33.627 28.4905 33.8046 28.7201 33.8046 28.9858C33.8046 29.8399 33.6112 30.6488 33.2299 31.3897C32.8722 32.0846 32.3536 32.6932 31.7301 33.1497C31.1093 33.6042 30.389 33.9045 29.647 34.0182C29.4145 34.0538 29.182 34.0716 28.9504 34.0717Z" fill="white"/>
</svg>
