<svg width="31" height="31" viewBox="0 0 31 31" fill="none" xmlns="http://www.w3.org/2000/svg">
<rect width="31" height="31" rx="15.5" fill="#A80010"/>
<path d="M22.6981 19.4388L20.5472 17.2834C19.9435 16.6784 18.9646 16.6784 18.3608 17.2834L18.0242 17.6206C17.7534 17.8914 17.5653 18.2339 17.4818 18.6079C16.7527 18.6216 15.9282 18.4974 15.223 18.0389C14.7899 17.7163 14.3809 17.3623 13.9992 16.9799C13.6768 16.657 13.3746 16.3146 13.0941 15.9546C12.5445 15.2147 12.3994 14.3167 12.4141 13.5297C12.7874 13.4461 13.1292 13.2575 13.3994 12.9861L13.7359 12.6489C14.3396 12.0439 14.3396 11.0629 13.7359 10.4579L11.585 8.30252C11.1825 7.89916 10.5298 7.89916 10.1274 8.30252L9.75808 8.67265C9.28469 9.14703 9.04235 9.76488 9.02975 10.3866C8.90853 11.6982 9.15922 13.1421 9.75474 14.5622C10.1479 15.4999 10.6878 16.4154 11.3453 17.2664C11.3536 17.2775 11.3614 17.2888 11.3699 17.2999L11.3708 17.2991C11.7065 17.7307 12.0684 18.141 12.4545 18.5279C12.8535 18.9281 13.2775 19.3025 13.7239 19.6488L13.7196 19.6545C13.7939 19.711 13.8698 19.7655 13.947 19.818C15.8233 21.2087 17.944 21.99 19.9175 21.9899C20.0327 21.9899 20.1476 21.9866 20.2619 21.9812C20.997 22.0718 21.7645 21.835 22.3288 21.2696L22.6981 20.8995C23.1006 20.4961 23.1006 19.8422 22.6981 19.4388Z" fill="white"/>
</svg>
