<svg width="31" height="32" viewBox="0 0 31 32" fill="none" xmlns="http://www.w3.org/2000/svg">
<path d="M9.71388 16.0996C10.9337 18.6859 12.9552 20.7727 15.4546 22.026C15.6375 22.1158 15.8398 22.1548 16.0415 22.1389C16.2433 22.1231 16.4377 22.053 16.6054 21.9357L20.2856 19.3907C20.4484 19.2782 20.6356 19.2095 20.8304 19.191C21.0252 19.1724 21.2214 19.2045 21.4013 19.2845L28.2862 22.3444C28.5201 22.4475 28.7153 22.6265 28.8425 22.8546C28.9698 23.0828 29.022 23.3476 28.9915 23.6092C28.7739 25.3751 27.9431 26.9982 26.6546 28.1745C25.3661 29.3509 23.7083 29.9999 21.9916 30C16.6895 30 11.6046 27.8157 7.85542 23.9277C4.10626 20.0397 2 14.7664 2 9.26793C2.00009 7.48767 2.6259 5.76849 3.76027 4.43229C4.89463 3.09608 6.45975 2.23448 8.16257 2.00881C8.41484 1.97715 8.6702 2.03136 8.89017 2.16329C9.11014 2.29522 9.28281 2.49771 9.38216 2.74026L12.3354 9.8864C12.4118 10.0712 12.4429 10.2728 12.426 10.4731C12.4091 10.6735 12.3447 10.8664 12.2385 11.0346L9.79299 14.9097C9.68169 15.084 9.61589 15.2853 9.60202 15.4938C9.58815 15.7024 9.62669 15.9111 9.71388 16.0996Z" stroke="black" stroke-width="3" stroke-linecap="round" stroke-linejoin="round"/>
</svg>
