<svg width="112" height="52" viewBox="0 0 112 52" fill="none" xmlns="http://www.w3.org/2000/svg">
<path d="M31.5399 9.70448C30.6951 9.41023 30.1319 8.52749 29.8503 7.939C29.2871 7.05626 29.2871 6.46777 29.2871 5.29079C29.2871 4.40805 29.5687 3.52531 29.8503 2.64257C30.4135 1.75984 30.9767 1.17134 31.5399 0.877097C32.3848 0.582851 33.2296 0.288605 34.0744 0.288605C34.9192 0.288605 35.764 0.582851 36.6089 0.877097C37.4537 1.17134 38.0169 1.75984 38.2985 2.64257C38.8618 3.52531 38.8618 4.1138 38.8618 5.29079C38.8618 6.17353 38.5802 7.05626 38.2985 7.939C37.7353 8.82174 37.1721 9.41023 36.6089 9.70448C35.764 9.99873 34.9192 10.293 34.0744 10.293C33.2296 10.5872 32.3848 10.293 31.5399 9.70448ZM35.7641 8.23325C36.3273 7.939 36.6089 7.64476 36.8905 7.05626C37.1721 6.46777 37.1721 6.17353 37.1721 5.58503C37.1721 4.99654 37.1721 4.40805 36.8905 4.1138C36.6089 3.52531 36.3273 3.23107 35.7641 2.93682C35.2009 2.64257 34.9193 2.64257 34.356 2.64257C33.7928 2.64257 33.2296 2.64257 32.948 2.93682C32.3848 3.23107 32.1032 3.52531 31.8216 4.1138C31.54 4.7023 31.5399 4.99654 31.5399 5.58503C31.5399 6.17353 31.54 6.76202 31.8216 7.05626C32.1032 7.64476 32.3848 7.939 32.948 8.23325C33.5112 8.52749 33.7928 8.5275 34.356 8.5275C34.9193 8.5275 35.2009 8.52749 35.7641 8.23325Z" fill="black"/>
<path d="M49.8447 0.582748V10.2929H47.5918V2.34822H43.3677V10.2929H41.1147V0.582748H49.8447Z" fill="black"/>
<path d="M59.9821 8.52739V10.2929H52.9419V0.582748H59.9821V2.34822H55.1947V4.40795H59.4189V6.17342H55.1947V8.52739H59.9821Z" fill="black"/>
<path d="M68.4307 1.17124C68.9939 1.46549 69.5571 1.75973 69.8387 2.34822C70.1203 2.93672 70.4019 3.52521 70.4019 4.1137C70.4019 4.70219 70.1203 5.58493 69.8387 5.87918C69.5571 6.46767 68.9939 6.76192 68.4307 7.05616C67.8675 7.35041 67.0226 7.35041 66.1777 7.35041H64.2065V9.99862H61.9536V0.582748H65.8962C67.0226 0.582748 67.8675 0.876994 68.4307 1.17124ZM67.5858 5.29069C67.8674 4.99644 68.149 4.70219 68.149 4.1137C68.149 3.52521 67.8674 3.23096 67.5858 2.93672C67.3042 2.64247 66.741 2.64247 66.1777 2.64247H64.4882V5.87918H66.1777C66.741 5.87918 67.3042 5.58493 67.5858 5.29069Z" fill="black"/>
<path d="M78.0059 8.23315H73.7818L72.937 10.2929H70.6841L74.9082 0.582748H77.1611L81.3853 10.2929H79.1324L78.0059 8.23315ZM77.4427 6.46767L75.7531 2.93672L74.3451 6.76192H77.4427V6.46767Z" fill="black"/>
<path d="M89.5519 2.34822H86.4542V10.2929H84.2013V2.34822H81.3853V0.582748H89.5519V2.34822Z" fill="black"/>
<path d="M92.9316 9.70438C92.0867 9.41013 91.5236 8.52739 91.242 7.9389C90.6787 7.35041 90.6787 6.46767 90.6787 5.58493C90.6787 4.70219 90.9604 3.81945 91.242 2.93672C91.8052 2.05398 92.3683 1.46549 92.9316 1.17124C93.7764 0.876994 94.6213 0.582748 95.4661 0.582748C96.3109 0.582748 97.1557 0.876994 98.0006 1.17124C98.8454 1.46549 99.4086 2.05398 99.6903 2.93672C100.253 3.81945 100.253 4.40795 100.253 5.58493C100.253 6.46767 99.9719 7.35041 99.6903 8.23314C99.127 9.11588 98.5638 9.70437 98.0006 9.99862C97.1557 10.2929 96.3109 10.5871 95.4661 10.5871C94.6213 10.5871 93.7764 10.2929 92.9316 9.70438ZM97.1557 8.23314C97.7189 7.9389 98.0006 7.64465 98.2822 7.05616C98.5638 6.46767 98.5637 6.17342 98.5637 5.58493C98.5637 4.99644 98.5638 4.40795 98.2822 4.1137C98.0006 3.52521 97.7189 3.23096 97.1557 2.93672C96.5925 2.64247 96.3109 2.64247 95.7476 2.64247C95.1844 2.64247 94.6212 2.64247 94.3396 2.93672C93.7764 3.23096 93.4948 3.52521 93.2132 4.1137C92.9316 4.70219 92.9316 4.99644 92.9316 5.58493C92.9316 6.17342 92.9316 6.76191 93.2132 7.05616C93.4948 7.64465 93.7764 7.9389 94.3396 8.23314C94.9028 8.52739 95.1844 8.52739 95.7476 8.52739C96.3109 8.52739 96.5925 8.52739 97.1557 8.23314Z" fill="black"/>
<path d="M108.982 1.17124C109.546 1.46549 110.109 1.75973 110.39 2.34822C110.672 2.93672 110.954 3.52521 110.954 4.1137C110.954 4.70219 110.672 5.58493 110.39 5.87918C110.109 6.46767 109.546 6.76192 108.982 7.05616C108.419 7.35041 107.574 7.35041 106.73 7.35041H104.758V9.99862H102.505V0.582748H106.448C107.574 0.582748 108.419 0.876994 108.982 1.17124ZM108.138 5.29069C108.419 4.99644 108.701 4.70219 108.701 4.1137C108.701 3.52521 108.419 3.23096 108.138 2.93672C107.856 2.64247 107.293 2.64247 106.73 2.64247H105.04V5.87918H106.73C107.293 5.87918 107.856 5.58493 108.138 5.29069Z" fill="black"/>
<path d="M8.7299 21.1801V30.8902H6.47706V22.9456H2.25293V30.8902H0V21.1801H8.7299Z" fill="black"/>
<path d="M13.5176 30.3017C12.6727 30.0075 12.1095 29.1247 11.8279 28.5362C11.2647 27.6535 11.2646 27.065 11.2646 25.888C11.2646 25.0053 11.5463 24.1225 11.8279 23.2398C12.3911 22.3571 12.9544 21.7686 13.5176 21.4743C14.3624 21.1801 15.2072 20.8858 16.052 20.8858C16.8969 20.8858 17.7417 21.1801 18.5865 21.4743C19.4313 21.7686 19.9946 22.3571 20.2762 23.2398C20.8394 24.1225 20.8394 24.711 20.8394 25.888C20.8394 26.7708 20.5578 27.6535 20.2762 28.5362C19.713 29.419 19.1497 30.0075 18.5865 30.3017C17.7417 30.596 16.8969 30.8902 16.052 30.8902C15.2072 30.8902 14.3624 30.8902 13.5176 30.3017ZM17.4601 28.8305C18.0233 28.5362 18.3049 28.242 18.5865 27.6535C18.8681 27.065 18.8681 26.7708 18.8681 26.1823C18.8681 25.5938 18.8681 25.0053 18.5865 24.711C18.3049 24.1225 18.0233 23.8283 17.4601 23.534C16.8969 23.2398 16.6153 23.2398 16.052 23.2398C15.4888 23.2398 14.9256 23.2398 14.644 23.534C14.0808 23.8283 13.7992 24.1225 13.5176 24.711C13.236 25.2995 13.2359 25.5938 13.2359 26.1823C13.2359 26.7708 13.236 27.3592 13.5176 27.6535C13.7992 28.242 14.0808 28.5362 14.644 28.8305C15.2072 29.1247 15.4888 29.1247 16.052 29.1247C16.6153 29.1247 17.1785 28.8305 17.4601 28.8305Z" fill="black"/>
<path d="M32.6665 29.1247V32.9499H30.6953V30.8902H24.2183V32.9499H22.2471V29.1247H22.5286C23.0918 29.1247 23.3735 28.5362 23.6551 27.9477C23.9367 27.065 23.9367 25.888 24.2183 24.4168V21.4743H31.2585V29.419H32.6665V29.1247ZM25.6263 27.3592C25.6263 28.242 25.3448 28.8305 25.0632 29.1247H29.2873V23.2398H25.908V24.711C25.908 25.5938 25.9079 26.4765 25.6263 27.3592Z" fill="black"/>
<path d="M42.2407 26.7708C42.5223 27.065 42.804 27.6535 42.804 28.242C42.804 29.1248 42.5224 29.7132 41.9592 30.3017C41.3959 30.8902 40.5511 30.8902 39.4246 30.8902H34.9189V21.1801H39.1431C40.2695 21.1801 41.1143 21.4743 41.6775 21.7686C42.2408 22.0628 42.5223 22.9456 42.5223 23.5341C42.5223 24.1226 42.5223 24.4168 42.2407 24.7111C41.9591 25.0053 41.6775 25.2995 41.3959 25.5938C41.6775 25.888 41.9591 26.1823 42.2407 26.7708ZM36.6085 25.2995H38.5798C39.143 25.2995 39.4246 25.2995 39.7062 25.0053C39.9879 24.7111 39.9879 24.4168 39.9879 24.1226C39.9879 23.8283 39.9879 23.5341 39.7062 23.2398C39.4246 22.9456 39.143 22.9456 38.5798 22.9456H36.6085V25.2995ZM40.5511 27.9478C40.5511 27.065 39.9879 26.7708 39.1431 26.7708H36.8902V29.1247H39.1431C39.9879 29.1247 40.5511 28.8305 40.5511 27.9478Z" fill="black"/>
<path d="M45.0571 21.1801H47.3101V27.3593L51.8158 21.1801H53.787V30.8902H51.5342V24.4168L47.0284 30.596H45.0571V21.1801Z" fill="black"/>
<path d="M64.7706 27.065H63.3626V30.8902H61.3913V27.065H59.9833L58.012 30.8902H55.4775L58.2936 25.888L55.7592 21.1801H58.012L59.9833 25.0053H61.3913V21.1801H63.3626V25.0053H64.7706L66.7419 21.1801H68.9947L66.4603 25.888L69.2764 30.8902H66.7419L64.7706 27.065Z" fill="black"/>
<path d="M79.4141 21.1801V30.8902H77.1613V27.065H72.9371V30.8902H70.9658V21.1801H73.2187V25.0053H77.4428V21.1801H79.4141Z" fill="black"/>
<path d="M83.9194 30.3017C83.0746 30.0075 82.5114 29.1247 82.2298 28.5362C81.6665 27.6535 81.6665 27.065 81.6665 25.888C81.6665 25.0053 81.9481 24.1225 82.2298 23.2398C82.793 22.3571 83.3562 21.7686 83.9194 21.4743C84.7643 21.1801 85.6091 20.8858 86.4539 20.8858C87.2987 20.8858 88.1435 21.1801 88.9884 21.4743C89.8332 21.7686 90.3964 22.3571 90.678 23.2398C91.2413 24.1225 91.2413 24.711 91.2413 25.888C91.2413 26.7708 90.9596 27.6535 90.678 28.5362C90.1148 29.419 89.5516 30.0075 88.9884 30.3017C88.1435 30.596 87.2987 30.8902 86.4539 30.8902C85.6091 30.8902 84.7643 30.8902 83.9194 30.3017ZM88.1436 28.8305C88.7068 28.5362 88.9884 28.242 89.27 27.6535C89.5516 27.065 89.5516 26.7708 89.5516 26.1823C89.5516 25.5938 89.5516 25.0053 89.27 24.711C88.9884 24.1225 88.7068 23.8283 88.1436 23.534C87.5803 23.2398 87.2987 23.2398 86.7355 23.2398C86.1723 23.2398 85.6091 23.2398 85.3275 23.534C84.7643 23.8283 84.4827 24.1225 84.2011 24.711C83.9194 25.2995 83.9194 25.5938 83.9194 26.1823C83.9194 26.7708 83.9194 27.3592 84.2011 27.6535C84.4827 28.242 84.7643 28.5362 85.3275 28.8305C85.8907 29.1247 86.1723 29.1247 86.7355 29.1247C87.2987 29.1247 87.5803 28.8305 88.1436 28.8305Z" fill="black"/>
<path d="M100.533 22.9456H96.0277V30.8902H93.7749V21.1801H100.252L100.533 22.9456Z" fill="black"/>
<path d="M103.069 30.3017C102.224 30.0075 101.661 29.1247 101.379 28.5362C100.816 27.6535 100.816 27.065 100.816 25.888C100.816 25.0053 101.097 24.1225 101.379 23.2398C101.942 22.3571 102.506 21.7686 103.069 21.4743C103.914 21.1801 104.758 20.8858 105.603 20.8858C106.448 20.8858 107.293 21.1801 108.138 21.4743C108.983 21.7686 109.546 22.3571 109.827 23.2398C110.391 24.1225 110.391 24.711 110.391 25.888C110.391 26.7708 110.109 27.6535 109.827 28.5362C109.264 29.419 108.701 30.0075 108.138 30.3017C107.293 30.596 106.448 30.8902 105.603 30.8902C104.758 30.8902 103.914 30.8902 103.069 30.3017ZM107.293 28.8305C107.856 28.5362 108.138 28.242 108.419 27.6535C108.701 27.065 108.701 26.7708 108.701 26.1823C108.701 25.5938 108.701 25.0053 108.419 24.711C108.138 24.1225 107.856 23.8283 107.293 23.534C106.73 23.2398 106.448 23.2398 105.885 23.2398C105.322 23.2398 104.758 23.2398 104.477 23.534C103.914 23.8283 103.632 24.1225 103.35 24.711C103.069 25.2995 103.069 25.5938 103.069 26.1823C103.069 26.7708 103.069 27.3592 103.35 27.6535C103.632 27.9477 103.914 28.5362 104.477 28.8305C105.04 29.1247 105.322 29.1247 105.885 29.1247C106.166 29.1247 106.73 28.8305 107.293 28.8305Z" fill="black"/>
<path d="M41.9604 50.8989C41.1156 50.6047 40.5524 50.0162 40.2708 49.1335C39.7076 48.2507 39.7075 47.368 39.7075 46.4852C39.7075 45.6025 39.9892 44.7198 40.2708 43.837C40.5524 42.9543 41.3972 42.3658 41.9604 42.0716C42.8053 41.7773 43.6501 41.4831 44.4949 41.4831C45.3397 41.4831 45.9029 41.7773 46.7477 42.0716C47.311 42.3658 47.8742 42.66 48.4374 43.2485L47.0294 44.7198C46.4661 43.837 45.6214 43.5428 44.7765 43.5428C44.2133 43.5428 43.6501 43.5428 43.3685 43.837C42.8053 44.1313 42.5236 44.4255 42.242 45.014C41.9604 45.6025 41.9604 45.8967 41.9604 46.4852C41.9604 47.0737 41.9604 47.6622 42.242 47.9565C42.5236 48.545 42.8053 48.8392 43.3685 49.1335C43.9317 49.4277 44.2133 49.4277 44.7765 49.4277C45.6214 49.4277 46.4661 49.1335 47.0294 48.2507L48.4374 49.7219C47.8742 50.3104 47.311 50.6047 46.7477 50.8989C46.1845 51.1932 45.3397 51.4874 44.4949 51.4874C43.6501 51.4874 42.8053 51.1932 41.9604 50.8989Z" fill="black"/>
<path d="M52.0981 50.8989C51.2532 50.6047 50.6901 49.722 50.4085 49.1335C49.8452 48.2507 49.8452 47.6622 49.8452 46.4852C49.8452 45.6025 50.1269 44.7198 50.4085 43.837C50.9717 42.9543 51.5348 42.3658 52.0981 42.0716C52.9429 41.7773 53.7878 41.4831 54.6326 41.4831C55.4774 41.4831 56.3222 41.7773 57.1671 42.0716C58.0119 42.3658 58.5751 42.9543 58.8567 43.837C59.42 44.7198 59.4199 45.3083 59.4199 46.4852C59.4199 47.368 59.1383 48.2507 58.8567 49.1335C58.2935 50.0162 57.7303 50.6047 57.1671 50.8989C56.3222 51.1932 55.4774 51.4874 54.6326 51.4874C53.7878 51.4874 52.6613 51.1932 52.0981 50.8989ZM56.0406 49.1335C56.6039 48.8392 56.8855 48.545 57.1671 47.9565C57.4487 47.368 57.4487 47.0737 57.4487 46.4852C57.4487 45.8967 57.4487 45.3083 57.1671 45.014C56.8855 44.4255 56.6039 44.1313 56.0406 43.837C55.4774 43.5428 55.1958 43.5428 54.6326 43.5428C54.0694 43.5428 53.5062 43.5428 53.2246 43.837C52.6613 44.1313 52.3797 44.4255 52.0981 45.014C51.8164 45.6025 51.8165 45.8967 51.8165 46.4852C51.8165 47.0737 51.8164 47.6622 52.0981 47.9565C52.3797 48.545 52.6613 48.8392 53.2246 49.1335C53.7878 49.4277 54.0694 49.4277 54.6326 49.4277C55.1958 49.4277 55.759 49.4277 56.0406 49.1335Z" fill="black"/>
<path d="M63.643 50.8989C62.7981 50.6047 62.2349 50.0162 61.9533 49.1335C61.3901 48.2507 61.3901 47.368 61.3901 46.4852C61.3901 45.6025 61.6717 44.7198 61.9533 43.837C62.2349 42.9543 63.0798 42.3658 63.643 42.0716C64.4878 41.7773 65.3326 41.4831 66.1774 41.4831C67.0223 41.4831 67.5855 41.7773 68.4304 42.0716C68.9936 42.3658 69.5568 42.66 70.12 43.2485L68.712 44.7198C68.1488 43.837 67.3039 43.5428 66.4591 43.5428C65.8958 43.5428 65.3326 43.5428 65.051 43.837C64.4878 44.1313 64.2062 44.4255 63.9246 45.014C63.643 45.6025 63.643 45.8967 63.643 46.4852C63.643 47.0737 63.643 47.6622 63.9246 47.9565C64.2062 48.545 64.4878 48.8392 65.051 49.1335C65.6142 49.4277 65.8958 49.4277 66.4591 49.4277C67.3039 49.4277 68.1488 49.1335 68.712 48.2507L70.12 49.7219C69.5568 50.3104 68.9936 50.6047 68.4304 50.8989C67.8671 51.1932 67.0223 51.4874 66.1774 51.4874C65.3326 51.4874 64.4878 51.1932 63.643 50.8989Z" fill="black"/>
<path d="M78.8509 43.5428H75.7532V51.4875H73.7819V43.5428H70.9658V41.7773H79.1325V43.5428H78.8509Z" fill="black"/>
<path d="M86.7359 49.4277H82.2302L81.3854 51.4875H79.4141L83.6382 41.7773H85.891L90.1152 51.4875H87.8623L86.7359 49.4277ZM85.891 47.6623L84.483 43.8371L83.0749 47.6623H85.891Z" fill="black"/>
<path d="M99.1265 47.0737C99.4081 47.368 99.6898 47.9565 99.6898 48.545C99.6898 49.4277 99.4081 50.0162 98.8449 50.6047C98.2817 51.1932 97.4369 51.1932 96.3104 51.1932H91.8047V41.4831H96.0288C97.1553 41.4831 98.0001 41.7773 98.5633 42.0716C99.1265 42.3658 99.4082 43.2485 99.4082 43.837C99.4082 44.4255 99.4081 44.7198 99.1265 45.014C98.8449 45.3083 98.5634 45.6025 98.2817 45.8968C98.5634 46.4852 98.8449 46.7795 99.1265 47.0737ZM93.4944 45.6025H95.4657C96.0289 45.6025 96.3105 45.6025 96.5921 45.3083C96.8737 45.014 96.8737 44.7198 96.8737 44.4255C96.8737 44.1313 96.8737 43.837 96.5921 43.5428C96.3105 43.2485 96.0289 43.2485 95.4657 43.2485H93.4944V45.6025ZM97.4369 48.545C97.4369 47.6622 96.8736 47.368 96.0288 47.368H93.4944V49.722H95.7472C96.8736 49.722 97.4369 49.4277 97.4369 48.545Z" fill="black"/>
<path d="M108.138 49.4277H103.914L103.069 51.4875H100.816L105.04 41.7773H107.293L111.517 51.4875H109.264L108.138 49.4277ZM107.575 47.6623L106.166 43.8371L104.758 47.6623H107.575Z" fill="black"/>
</svg>
