<svg width="126" height="114" viewBox="0 0 126 114" fill="none" xmlns="http://www.w3.org/2000/svg">
<path d="M84 56.6816L46.5324 114L2.41722 114L38.0719 59.8659L2.3368e-06 2.85881e-07L48.3453 4.51236e-06L84 56.6816Z" fill="#F5F5F5"/>
<path d="M124.359 83.3045H114.852C133.889 71.788 127.031 42.4487 104.672 40.7065V39.0078C104.585 36.831 101.476 36.8327 101.391 39.0078V40.6484H91.5468V39.0078C91.4602 36.831 88.3514 36.8327 88.2656 39.0078V40.6484H79.7342V37.3672C81.911 37.2806 81.9094 34.1717 79.7342 34.0859H63.328C61.1513 34.1726 61.1529 37.2814 63.328 37.3672V40.7065C40.9543 42.4542 34.1209 71.7975 53.1482 83.3045H43.6406C42.7345 83.3045 42 84.039 42 84.9451V91.5076C42 92.4137 42.7345 93.1482 43.6406 93.1482H51.522C47.718 99.5873 52.5502 107.98 60.0463 107.914C67.5415 107.98 72.3752 99.5862 68.5703 93.1482H99.4294C95.6254 99.5873 100.458 107.98 107.954 107.914C115.449 107.98 120.283 99.5862 116.478 93.1482H124.359C125.265 93.1482 126 92.4137 126 91.5076V84.9451C126 84.0392 125.265 83.3045 124.359 83.3045ZM101.391 76.195H91.547V72.367H101.391V76.195ZM101.391 61.9765H91.547V58.1484H101.391V61.9765ZM91.5468 69.0857V65.2577H101.391V69.0857H91.5468ZM101.391 54.8672H91.547V51.0391H101.391V54.8672ZM91.5468 79.4763H101.391V83.3045H91.5468V79.4763ZM104.672 83.2369V72.367H120.666C117.67 78.3805 111.687 82.6555 104.672 83.2369ZM122.719 63.6171C122.719 65.5138 122.449 67.3488 121.946 69.0857H104.672V43.9974C114.763 44.8338 122.719 53.3138 122.719 63.6171ZM101.391 43.9296V47.7577H91.547V43.9296H101.391ZM76.453 37.3672V40.6484H66.6093V37.3672H76.453ZM64.9687 43.9296H88.2656V69.0857H78.7732L72.1444 62.457C71.8368 62.1494 71.4194 61.9765 70.9843 61.9765H45.349C46.1852 51.8855 54.6654 43.9296 64.9687 43.9296ZM45.349 65.2577H70.3048L76.9335 71.8864C77.2411 72.1941 77.6585 72.367 78.0936 72.367H88.2656V83.3045H64.9687C54.6654 83.3045 46.1854 75.3488 45.349 65.2577ZM66.6088 98.0701C66.6088 101.689 63.6649 104.633 60.0463 104.633C54.0364 104.634 51.1994 97.1139 55.7062 93.1482H64.3864C65.799 94.3951 66.6088 96.1876 66.6088 98.0701ZM114.516 98.0701C114.516 101.689 111.572 104.633 107.954 104.633C101.944 104.634 99.107 97.1139 103.614 93.1482H112.294C113.707 94.3951 114.516 96.1876 114.516 98.0701ZM122.719 89.867H45.2812V86.5857H122.719V89.867Z" fill="#A80010"/>
<path d="M60.0466 99.7107C62.2234 99.624 62.2218 96.5152 60.0466 96.4294H60.0455C57.8687 96.5164 57.8715 99.625 60.0466 99.7107Z" fill="#A80010"/>
<path d="M107.955 99.7107C110.132 99.624 110.13 96.5152 107.955 96.4294H107.954C105.777 96.5164 105.78 99.625 107.955 99.7107Z" fill="#A80010"/>
<path d="M65.59 69.0859H55.7462C53.5694 69.1725 53.5711 72.2813 55.7462 72.3671H65.59C67.7668 72.2805 67.7651 69.1717 65.59 69.0859Z" fill="#A80010"/>
</svg>
