<svg width="135" height="81" viewBox="0 0 135 81" fill="none" xmlns="http://www.w3.org/2000/svg">
<path d="M132.242 62.4194C133.445 62.4194 134.419 61.4444 134.419 60.2419C134.419 59.0394 133.445 58.0645 132.242 58.0645H127.591C127.588 58.0645 127.585 58.0645 127.581 58.0645H121.596C129.301 53.134 134.419 44.5004 134.419 34.6935C134.419 20.1382 123.145 8.16706 108.871 7.05281V4.5C108.871 2.01861 106.852 0 104.371 0H95.0806C92.5993 0 90.5806 2.01861 90.5806 4.5V6.96774H43.8387V6.82258C43.8387 5.62006 42.8641 4.64516 41.6613 4.64516C40.4585 4.64516 39.4839 5.62006 39.4839 6.82258V6.96774H29.9032V6.82258C29.9032 5.62006 28.9286 4.64516 27.7258 4.64516C26.523 4.64516 25.5484 5.62006 25.5484 6.82258V7.05281C11.2741 8.16706 0 20.1382 0 34.6935C0 44.5004 5.1181 53.134 12.8235 58.0645H6.8371C6.83477 58.0645 6.83274 58.0645 6.83042 58.0645H2.17742C0.974613 58.0645 0 59.0394 0 60.2419C0 61.4444 0.974613 62.4194 2.17742 62.4194H5.65723L9.10335 67.5885C7.77948 69.0143 6.96774 70.9217 6.96774 73.0161C6.96774 74.3226 7.28506 75.5556 7.84394 76.6452H2.17742C0.974613 76.6452 0 77.6201 0 78.8226C0 80.0251 0.974613 81 2.17742 81H132.242C133.445 81 134.419 80.0251 134.419 78.8226C134.419 77.6201 133.445 76.6452 132.242 76.6452H126.575C127.134 75.5556 127.452 74.3226 127.452 73.0161C127.452 70.9217 126.64 69.0143 125.316 67.5885L128.762 62.4194H132.242ZM94.9355 4.5C94.9355 4.41987 95.0008 4.35484 95.0806 4.35484H104.371C104.451 4.35484 104.516 4.41987 104.516 4.5V6.96774H94.9355V4.5ZM106.694 11.3226C119.58 11.3226 130.065 21.8067 130.065 34.6935C130.065 47.5804 119.58 58.0645 106.694 58.0645H43.8387V11.3226H106.694ZM29.9032 58.0645V55.4516H39.4839V58.0645H29.9032ZM39.4839 41.8064H29.9032V36.871H39.4839V41.8064ZM39.4839 32.5161H29.9032V27.5806H39.4839V32.5161ZM29.9032 46.1613H39.4839V51.0968H29.9032V46.1613ZM39.4839 23.2258H29.9032V18.2903H39.4839V23.2258ZM39.4839 11.3226V13.9355H29.9032V11.3226H39.4839ZM4.35484 34.6935C4.35484 22.5412 13.6791 12.5297 25.5484 11.4277V57.9597C13.6791 56.8574 4.35484 46.8459 4.35484 34.6935ZM11.3226 73.0161C11.3226 71.0149 12.9504 69.3871 14.9516 69.3871C16.9528 69.3871 18.5806 71.0149 18.5806 73.0161C18.5806 75.0173 16.9528 76.6452 14.9516 76.6452C12.9504 76.6452 11.3226 75.0173 11.3226 73.0161ZM41.4076 71.7097H93.0121C92.9418 72.135 92.9035 72.5711 92.9035 73.0161C92.9035 74.3226 93.2208 75.5556 93.7797 76.6452H40.6399C41.1985 75.5556 41.5161 74.3226 41.5161 73.0161C41.5161 72.5711 41.4778 72.135 41.4076 71.7097ZM108.762 71.7097H111.593C111.522 72.135 111.484 72.5711 111.484 73.0161C111.484 74.3226 111.801 75.5556 112.36 76.6452H107.995C108.554 75.5556 108.872 74.3226 108.872 73.0161C108.871 72.5711 108.833 72.135 108.762 71.7097ZM100.887 76.6452C98.8859 76.6452 97.2581 75.0173 97.2581 73.0161C97.2581 71.0149 98.8859 69.3871 100.887 69.3871C102.888 69.3871 104.516 71.0149 104.516 73.0161C104.516 75.0173 102.888 76.6452 100.887 76.6452ZM33.5323 76.6452C31.5311 76.6452 29.9032 75.0173 29.9032 73.0161C29.9032 71.0149 31.5311 69.3871 33.5323 69.3871C35.5335 69.3871 37.1613 71.0149 37.1613 73.0161C37.1613 75.0173 35.5335 76.6452 33.5323 76.6452ZM26.4246 76.6452H22.0593C22.6179 75.5556 22.9355 74.3226 22.9355 73.0161C22.9355 72.5711 22.8972 72.135 22.8269 71.7097H25.6573C25.587 72.135 25.5487 72.5711 25.5487 73.0161C25.5484 74.3226 25.8657 75.5556 26.4246 76.6452ZM115.839 73.0161C115.839 71.0149 117.467 69.3871 119.468 69.3871C121.469 69.3871 123.097 71.0149 123.097 73.0161C123.097 75.0173 121.469 76.6452 119.468 76.6452C117.467 76.6452 115.839 75.0173 115.839 73.0161ZM121.593 65.3217C120.916 65.1345 120.204 65.0323 119.468 65.0323C117.276 65.0323 115.289 65.9203 113.844 67.3548H106.694C106.635 67.3548 106.577 67.3592 106.52 67.3635C105.075 65.9238 103.083 65.0323 100.887 65.0323C98.6911 65.0323 96.6995 65.9238 95.2545 67.3635C95.1971 67.3589 95.1393 67.3548 95.0806 67.3548H39.3387C39.2801 67.3548 39.2223 67.3592 39.1648 67.3635C37.7199 65.9238 35.7283 65.0323 33.5323 65.0323C31.3409 65.0323 29.3531 65.9203 27.909 67.3548H20.5749C19.1308 65.9203 17.143 65.0323 14.9516 65.0323C14.2156 65.0323 13.5032 65.1345 12.8259 65.3217L10.8912 62.4194H123.528L121.593 65.3217Z" fill="black"/>
<path d="M74.1774 25.258H106.694C107.896 25.258 108.871 24.2831 108.871 23.0806C108.871 21.8781 107.896 20.9032 106.694 20.9032H74.1774C72.9746 20.9032 72 21.8781 72 23.0806C72 24.2831 72.9746 25.258 74.1774 25.258Z" fill="black"/>
<path d="M99.7258 30.1936H81.1452C79.9424 30.1936 78.9678 31.1685 78.9678 32.371C78.9678 33.5735 79.9424 34.5484 81.1452 34.5484H99.7258C100.929 34.5484 101.903 33.5735 101.903 32.371C101.903 31.1685 100.929 30.1936 99.7258 30.1936Z" fill="black"/>
<circle cx="15" cy="73" r="4" fill="#A80010"/>
<circle cx="15" cy="73" r="4" fill="#A80010"/>
<circle cx="15" cy="73" r="4" fill="#A80010"/>
<circle cx="34" cy="73" r="4" fill="#A80010"/>
<circle cx="34" cy="73" r="4" fill="#A80010"/>
<circle cx="34" cy="73" r="4" fill="#A80010"/>
<circle cx="101" cy="73" r="4" fill="#A80010"/>
<circle cx="101" cy="73" r="4" fill="#A80010"/>
<circle cx="101" cy="73" r="4" fill="#A80010"/>
<circle cx="120" cy="73" r="4" fill="#A80010"/>
<circle cx="120" cy="73" r="4" fill="#A80010"/>
<circle cx="120" cy="73" r="4" fill="#A80010"/>
</svg>
