<svg width="107" height="72" viewBox="0 0 107 72" fill="none" xmlns="http://www.w3.org/2000/svg">
<path d="M4.5 5.5L24.5 12L12.5 45H3.69873L4.5 5.5Z" fill="#A80010"/>
<path d="M83 16.5L102.801 9V49.5H94L83 16.5Z" fill="#A80010"/>
<path d="M106.05 4.86132C105.456 4.44335 104.694 4.34095 104.01 4.59361L85.8372 11.2028C83.5841 12.0214 81.7901 13.6716 80.7866 15.8484C80.5985 16.2565 80.475 16.6806 80.3512 17.104C77.2307 16.2168 71.4313 14.364 65.6678 11.3945C56.9587 6.90689 50.3052 9.1234 44.5986 13.4762C41.7071 13.533 37.7217 13.8749 33.804 14.2202C31.305 14.4407 28.9432 14.6436 27.0281 14.7604C26.981 13.6101 26.7119 12.4687 26.2153 11.3903C25.2118 9.21327 23.418 7.56311 21.1647 6.74471L2.99123 0.135086C2.30993 -0.11528 1.54358 -0.0128754 0.951517 0.402799C0.35486 0.820982 0 1.50228 0 2.22934V46.8131C0 48.0453 0.997076 49.0424 2.22926 49.0424H8.74046C11.5097 49.0424 14.0861 47.7362 15.7515 45.6271C16.6387 46.3017 17.6895 47.0917 18.7915 47.9191C21.3929 49.8762 24.2404 52.0117 25.4899 53.0589C33.7907 60.0077 43.7698 67.5116 45.7572 68.8178C47.6141 70.0368 50.9579 71.3344 53.5006 71.3344C54.4954 71.3344 57.0011 71.3344 58.7602 69.8474C60.5736 70.5592 62.5284 70.5246 64.3462 69.7233C66.1596 68.9243 67.6269 67.418 68.4802 65.587C70.2217 65.944 72.2223 65.6827 74.0357 64.7728C75.7358 63.9216 76.9876 62.6328 77.658 61.1264C79.2689 61.2744 80.9889 60.7498 82.5278 59.572C84.7268 57.8911 85.7337 55.4088 85.4489 52.9598L91.1034 49.8315C92.7594 52.0762 95.3914 53.5005 98.2606 53.5005H104.772C106.004 53.5005 107.001 52.5034 107.001 51.2712V6.68787C107.001 5.96059 106.646 5.2793 106.05 4.86132ZM12.9158 41.6909C12.2671 43.4215 10.5887 44.5841 8.74046 44.5841H4.45832V5.412L19.6404 10.9328C20.7681 11.3443 21.665 12.1694 22.1656 13.2578C22.6684 14.3462 22.7121 15.5654 22.2918 16.6864L12.9158 41.6909ZM79.8221 56.0305C79.0666 56.6096 78.0087 56.9319 77.5385 56.4616C77.5145 56.4376 77.4773 56.4399 77.4526 56.4169C77.41 56.3774 77.3889 56.3241 77.3427 56.2873C75.7492 55.029 68.6087 47.7233 64.1962 43.1212C63.3449 42.2309 61.9322 42.1981 61.0461 43.0537C60.1558 43.9049 60.1253 45.3155 60.9786 46.2037C62.0143 47.2848 70.3287 55.9442 73.6564 58.9726C73.4079 59.9515 72.5005 60.5559 72.0396 60.787C70.6116 61.5032 69.1226 61.3835 68.5652 60.8654C68.5487 60.8499 68.5241 60.8508 68.5069 60.8357C68.4798 60.8115 68.4676 60.7774 68.4388 60.7544C65.7654 58.6188 59.0584 51.4915 57.541 49.8413C56.7071 48.9335 55.2987 48.8769 54.3909 49.7086C53.4854 50.5425 53.4243 51.9532 54.2582 52.8587C54.3313 52.9379 60.9044 60.0282 64.5962 63.3216C64.2334 64.364 63.4942 65.2274 62.5458 65.646C61.8459 65.9569 60.7512 66.1164 59.5004 65.1921C56.2992 62.4777 49.8747 55.6391 48.6112 54.2867C47.7731 53.3853 46.3581 53.3398 45.4611 54.1801C44.562 55.0205 44.5142 56.4311 45.3545 57.3302C46.8525 58.9335 51.2803 63.6265 54.6463 66.8042C54.2703 66.8499 53.8755 66.8761 53.5006 66.8761C52.0245 66.8761 49.4885 65.9335 48.2064 65.0909C46.6433 64.0633 36.8295 56.7402 28.3547 49.6432C27.0726 48.5678 24.1468 46.3669 21.469 44.3554C20.0339 43.2781 18.7116 42.2848 17.7371 41.5352L26.0836 19.2747C28.2502 19.1801 31.1386 18.9303 34.1955 18.6607C35.9244 18.5084 37.6552 18.3598 39.3092 18.231C36.767 20.8407 32.9875 25.5147 33.4857 29.8959C33.7144 31.89 34.8051 33.551 36.6446 34.7005C40.2866 36.9797 47.0287 35.0683 50.2766 31.0737C52.3729 30.7711 53.7903 30.2357 55.3357 29.4693C57.9481 31.9249 61.4507 34.8116 65.1299 37.844C71.5345 43.121 78.7945 49.1032 80.7147 52.4579C81.7834 54.3237 80.3011 55.6648 79.8221 56.0305ZM83.6463 48.8614C80.6762 44.8881 74.2378 39.5722 67.9642 34.4024C63.7824 30.9563 59.8333 27.7017 57.3059 25.1744C56.6093 24.4821 55.5403 24.3253 54.6783 24.7847C52.4076 26.0016 51.3846 26.5044 48.8202 26.7613C48.1366 26.8309 47.5228 27.2097 47.157 27.7909C45.4089 30.5644 40.5499 31.8835 39.0086 30.9214C38.1334 30.3728 37.9637 29.8154 37.9158 29.3909C37.7004 27.4948 39.6203 24.212 42.8053 21.025C50.6925 13.1378 56.3307 11.5945 63.6256 15.3562C70.5564 18.9297 77.3968 20.9502 80.2683 21.7134C80.3512 22.0474 80.4114 22.3847 80.5339 22.7121L89.1895 45.7949L83.6463 48.8614ZM102.543 49.0424H98.2608C96.4125 49.0424 94.7341 47.8798 94.0854 46.1492L84.7093 21.147C84.2892 20.0237 84.3327 18.8047 84.8355 17.7161C85.3362 16.6277 86.2332 15.8026 87.3607 15.3911L102.543 9.87032V49.0424H102.543Z" fill="black"/>
</svg>
