<svg width="125" height="124" viewBox="0 0 125 124" fill="none" xmlns="http://www.w3.org/2000/svg">
<path d="M84 56.6816L46.5324 114L2.41722 114L38.0719 59.8659L2.3368e-06 2.85881e-07L48.3453 4.51236e-06L84 56.6816Z" fill="#F5F5F5"/>
<g clip-path="url(#clip0)">
<path d="M118 45.6H48C44.1359 45.6046 41.0046 48.7359 41 52.6V103C41.0046 106.864 44.1359 109.995 48 110H90V117C90.0001 117.566 90.3412 118.077 90.8643 118.293C91.3873 118.51 91.9894 118.39 92.3898 117.99L97 113.38L101.61 117.99C102.011 118.39 102.613 118.51 103.136 118.293C103.659 118.077 104 117.566 104 117V110H118C121.864 109.995 124.995 106.864 125 103V52.6C124.995 48.7359 121.864 45.6046 118 45.6ZM86.234 72.991C86.0176 72.8912 85.862 72.6938 85.8155 72.4601C85.769 72.2264 85.8371 71.9845 85.9988 71.8094C87.2515 70.4479 87.2515 68.3535 85.9988 66.992C85.8366 66.8167 85.7683 66.5743 85.8152 66.3401C85.862 66.1059 86.0183 65.9084 86.2354 65.809C87.9124 65.0286 88.7129 63.0943 88.0778 61.357C87.9951 61.1333 88.0246 60.8836 88.157 60.6853C88.2894 60.487 88.5087 60.364 88.747 60.3546C90.5958 60.2769 92.0769 58.7958 92.1546 56.947C92.1639 56.7084 92.287 56.4887 92.4857 56.3562C92.6844 56.2237 92.9346 56.1946 93.1584 56.2778C94.896 56.9092 96.828 56.109 97.6104 54.434C97.7094 54.2172 97.9066 54.0611 98.1403 54.0145C98.3741 53.9679 98.616 54.0365 98.7906 54.1988C100.153 55.4517 102.247 55.4517 103.609 54.1988C103.784 54.0366 104.027 53.9683 104.261 54.0151C104.495 54.062 104.692 54.2183 104.791 54.4354C105.572 56.1112 107.505 56.9114 109.242 56.2778C109.465 56.1946 109.716 56.2237 109.914 56.3562C110.113 56.4887 110.236 56.7084 110.245 56.947C110.324 58.7984 111.809 60.2805 113.66 60.356C113.898 60.365 114.118 60.4876 114.25 60.6857C114.383 60.8839 114.412 61.1335 114.329 61.357C113.694 63.0947 114.495 65.0296 116.173 65.809C116.389 65.9088 116.545 66.1062 116.591 66.3399C116.638 66.5736 116.57 66.8155 116.408 66.9906C115.155 68.3521 115.155 70.4465 116.408 71.808C116.57 71.9833 116.639 72.2257 116.592 72.4599C116.545 72.6941 116.389 72.8916 116.172 72.991C114.495 73.7714 113.694 75.7057 114.329 77.443C114.412 77.6667 114.382 77.9164 114.25 78.1147C114.118 78.313 113.898 78.436 113.66 78.4454C111.806 78.5198 110.32 80.0059 110.245 81.86C110.236 82.0986 110.113 82.3183 109.914 82.4508C109.716 82.5833 109.465 82.6124 109.242 82.5292C107.504 81.8971 105.571 82.6975 104.79 84.373C104.694 84.5919 104.497 84.7492 104.262 84.793C104.027 84.842 103.784 84.7735 103.609 84.6096C102.247 83.3574 100.153 83.3574 98.7906 84.6096C98.616 84.7733 98.3726 84.8418 98.1382 84.793C97.9032 84.7492 97.705 84.5919 97.609 84.373C96.8286 82.6967 94.8953 81.8963 93.1584 82.5306C92.9346 82.6138 92.6844 82.5847 92.4857 82.4522C92.287 82.3197 92.1639 82.1 92.1546 81.8614C92.0803 80.0067 90.5946 78.5198 88.74 78.444C88.5018 78.435 88.2824 78.3124 88.1499 78.1143C88.0175 77.9162 87.988 77.6665 88.0708 77.443C88.7074 75.7072 87.9094 73.7729 86.234 72.991ZM101.612 99.2088L101.2 99.6204V86.4604C101.387 86.4599 101.568 86.5304 101.705 86.6578C102.354 87.2659 103.21 87.6043 104.099 87.6042C104.337 87.6037 104.574 87.5803 104.808 87.5342C105.922 87.3167 106.861 86.5725 107.328 85.5378C107.492 85.1848 107.899 85.0168 108.264 85.1514C108.69 85.3023 109.141 85.3703 109.593 85.3516V99.6204L106.383 96.4102C105.836 95.8637 104.95 95.8637 104.403 96.4102L101.612 99.2088ZM101.2 113.62L97.9898 110.41C97.4431 109.864 96.5569 109.864 96.0102 110.41L92.8 113.62V85.3488C93.2516 85.3676 93.7026 85.2996 94.1286 85.1486C94.493 85.0132 94.9003 85.1809 95.0638 85.5336C95.5317 86.571 96.4747 87.3161 97.5922 87.5314C97.8581 87.584 98.129 87.607 98.4 87.6V103C98.4001 103.566 98.7412 104.077 99.2643 104.293C99.7873 104.51 100.389 104.39 100.79 103.99L101.2 103.58V113.62ZM122.2 103C122.2 105.32 120.32 107.2 118 107.2H104V100.78L105.4 99.3796L110.01 103.99C110.411 104.39 111.013 104.51 111.536 104.293C112.059 104.077 112.4 103.566 112.4 103V83.8298C112.791 83.2812 113.014 82.631 113.043 81.958C113.06 81.5697 113.371 81.2589 113.759 81.2426C114.894 81.1988 115.94 80.6138 116.571 79.6693C117.201 78.7248 117.341 77.5352 116.947 76.47C116.814 76.1056 116.982 75.6996 117.334 75.5362C118.366 75.0618 119.109 74.1211 119.33 73.0066C119.552 71.8921 119.226 70.7388 118.454 69.9054C118.19 69.6193 118.19 69.1793 118.454 68.8932C119.226 68.06 119.552 66.907 119.33 65.7926C119.109 64.6783 118.366 63.7379 117.334 63.2638C116.98 63.1014 116.812 62.6948 116.946 62.33C117.34 61.2648 117.2 60.0752 116.569 59.1307C115.938 58.1862 114.893 57.6012 113.758 57.5574C113.37 57.5411 113.058 57.2303 113.041 56.842C112.999 55.7066 112.414 54.6605 111.47 54.0289C110.526 53.3973 109.335 53.2569 108.27 53.6514C107.906 53.789 107.497 53.6207 107.335 53.2664C106.86 52.2338 105.92 51.4912 104.805 51.2695C103.691 51.0479 102.537 51.3739 101.704 52.1464C101.418 52.4094 100.979 52.4094 100.693 52.1464C99.86 51.3739 98.707 51.0478 97.5926 51.2695C96.4783 51.4912 95.5378 52.2338 95.0638 53.2664C94.9013 53.621 94.4924 53.7896 94.1272 53.6528C93.0617 53.2583 91.8717 53.3987 90.9272 54.0303C89.9828 54.6619 89.3984 55.708 89.356 56.8434C89.3389 57.2317 89.0276 57.5425 88.6392 57.5588C87.5042 57.6026 86.459 58.1876 85.8281 59.1321C85.1972 60.0766 85.0571 61.2662 85.4514 62.3314C85.5851 62.6958 85.417 63.1018 85.065 63.2652C84.0324 63.7396 83.2898 64.6803 83.0681 65.7948C82.8465 66.9093 83.1725 68.0626 83.945 68.896C84.2081 69.1821 84.2081 69.6221 83.945 69.9082C83.1725 70.7414 82.8464 71.8944 83.0681 73.0088C83.2898 74.1231 84.0324 75.0636 85.065 75.5376C85.4181 75.7 85.587 76.1066 85.4528 76.4714C85.0585 77.5366 85.1986 78.7262 85.8295 79.6707C86.4604 80.6152 87.5056 81.2002 88.6406 81.244C89.029 81.2603 89.3403 81.5711 89.3574 81.9594C89.3863 82.6319 89.6095 83.2816 90 83.8298V107.2H48C45.6804 107.2 43.8 105.32 43.8 103V52.6C43.8 50.2804 45.6804 48.4 48 48.4H118C120.32 48.4 122.2 50.2804 122.2 52.6V103Z" fill="#A80010"/>
<path d="M56.3999 96C54.0803 96 52.1999 94.1196 52.1999 91.8V63.8C52.1999 61.4804 54.0803 59.6 56.3999 59.6H81.5999C82.3731 59.6 82.9999 58.9732 82.9999 58.2C82.9999 57.4268 82.3731 56.8 81.5999 56.8H56.3999C52.5358 56.8046 49.4045 59.9359 49.3999 63.8V91.8C49.4045 95.6641 52.5358 98.7954 56.3999 98.8H82.9999C83.7731 98.8 84.3999 98.1732 84.3999 97.4C84.3999 96.6268 83.7731 96 82.9999 96H56.3999Z" fill="#A80010"/>
<path d="M57.8004 79.2H77.4004C78.1736 79.2 78.8004 78.5732 78.8004 77.8C78.8004 77.0268 78.1736 76.4 77.4004 76.4H57.8004C57.0272 76.4 56.4004 77.0268 56.4004 77.8C56.4004 78.5732 57.0272 79.2 57.8004 79.2Z" fill="#A80010"/>
<path d="M57.8004 73.6H77.4004C78.1736 73.6 78.8004 72.9732 78.8004 72.2C78.8004 71.4268 78.1736 70.8 77.4004 70.8H57.8004C57.0272 70.8 56.4004 71.4268 56.4004 72.2C56.4004 72.9732 57.0272 73.6 57.8004 73.6Z" fill="#A80010"/>
<path d="M57.8004 68H77.4004C78.1736 68 78.8004 67.3732 78.8004 66.6C78.8004 65.8268 78.1736 65.2 77.4004 65.2H57.8004C57.0272 65.2 56.4004 65.8268 56.4004 66.6C56.4004 67.3732 57.0272 68 57.8004 68Z" fill="#A80010"/>
<path d="M56.5164 92.36C56.7392 92.8704 57.2433 93.2003 57.8002 93.2C57.993 93.2009 58.1837 93.1613 58.3602 93.0838C59.6564 92.6023 60.8475 91.8755 61.8686 90.9432C62.2477 90.5649 62.5791 90.1418 62.8556 89.6832C63.3902 90.2842 64.0186 90.7948 64.7162 91.1952C65.6892 91.8314 66.9003 91.9862 68.002 91.6152C68.4244 91.4512 68.8064 91.1982 69.122 90.8732C69.7556 91.2691 70.4535 91.551 71.1842 91.7062L72.2426 91.9568C74.403 92.5896 76.6476 92.887 78.8982 92.8388C79.3972 92.8028 79.839 92.5033 80.0572 92.0533C80.2755 91.6032 80.2371 91.0708 79.9564 90.6568C79.6758 90.2427 79.1956 90.0098 78.6966 90.0458C76.7327 90.0714 74.7764 89.7976 72.895 89.2338L71.8128 88.9776C70.5066 88.6766 70.1706 88.1502 70.032 87.7792C69.7881 87.1278 69.1028 86.7543 68.4232 86.9023C67.7435 87.0502 67.2756 87.6747 67.3244 88.3686C67.3401 88.6196 67.2212 88.86 67.0122 89C66.6851 89.0416 66.3545 88.9564 66.0882 88.762C64.956 88.0571 64.1046 86.98 63.6802 85.7156C63.4393 85.0646 62.7578 84.6884 62.0785 84.8315C61.3993 84.9747 60.9275 85.5939 60.9698 86.2868C60.9934 87.2883 60.6011 88.2548 59.8862 88.9566C59.1089 89.6364 58.2115 90.1653 57.2402 90.5162C56.8996 90.6646 56.632 90.9423 56.4962 91.2881C56.3605 91.6339 56.3677 92.0195 56.5164 92.36Z" fill="#A80010"/>
<path d="M101.2 80.6C107.386 80.6 112.4 75.5856 112.4 69.4C112.4 63.2144 107.386 58.2 101.2 58.2C95.0144 58.2 90 63.2144 90 69.4C90.0069 75.5827 95.0173 80.5931 101.2 80.6ZM101.2 61C105.839 61 109.6 64.7608 109.6 69.4C109.6 74.0392 105.839 77.8 101.2 77.8C96.5608 77.8 92.8 74.0392 92.8 69.4C92.8046 64.7627 96.5627 61.0046 101.2 61Z" fill="#A80010"/>
</g>
<defs>
<clipPath id="clip0">
<rect width="84" height="84" fill="white" transform="translate(41 40)"/>
</clipPath>
</defs>
</svg>
