<svg width="127" height="123" viewBox="0 0 127 123" fill="none" xmlns="http://www.w3.org/2000/svg">
<path d="M84 56.6816L46.5324 114L2.41722 114L38.0719 59.8659L2.3368e-06 2.85881e-07L48.3453 4.51236e-06L84 56.6816Z" fill="#F5F5F5"/>
<g clip-path="url(#clip0)">
<path d="M126.597 65.7351L109.918 49.0557C109.382 48.5192 108.512 48.5192 107.975 49.0557L99.6358 57.3953C99.3783 57.6528 99.2337 58.0022 99.2337 58.3665C99.2337 58.7308 99.3783 59.0802 99.6358 59.3377L100.468 60.1697L98.556 62.0811C97.3148 63.3217 95.3891 63.6604 93.7642 62.9228C92.2407 62.2313 90.5471 61.866 88.8661 61.866C86.8701 61.866 84.9195 62.367 83.1864 63.316C82.4636 63.138 81.7219 63.0468 80.9728 63.0468C79.8894 63.0468 78.8253 63.2337 77.8101 63.6028C76.189 64.1916 74.4514 63.8267 73.2745 62.65L69.8417 59.2171L70.2505 58.8083C70.508 58.5508 70.6527 58.2014 70.6527 57.8371C70.6527 57.4728 70.508 57.1234 70.2505 56.8659L61.9109 48.5263C61.3743 47.9898 60.5049 47.9898 59.9684 48.5263L41.4022 67.0925C40.8659 67.6289 40.8659 68.4985 41.4022 69.0348L49.7417 77.3744C49.9993 77.6321 50.3485 77.7767 50.713 77.7767C51.0775 77.7767 51.4266 77.6321 51.6844 77.3744L52.1817 76.8771L54.6028 79.2982C55.2137 79.9091 55.6187 80.6718 55.7737 81.5037C56.5776 85.8177 58.6436 89.7395 61.7483 92.8459L62.2044 93.302C61.3286 94.2243 60.8469 95.4259 60.8469 96.7025C60.8469 98.0229 61.3612 99.2643 62.2947 100.198C63.2585 101.162 64.5242 101.644 65.7903 101.644C65.8728 101.644 65.9549 101.641 66.0374 101.637C65.9706 102.984 66.4503 104.353 67.4765 105.38C68.4103 106.314 69.6517 106.828 70.9721 106.828C71.0089 106.828 71.0455 106.826 71.0823 106.825C71.0541 108.127 71.5343 109.437 72.5253 110.428C73.4591 111.362 74.7005 111.876 76.0211 111.876C77.3415 111.876 78.5827 111.362 79.5166 110.428C79.5953 110.35 79.6693 110.269 79.7417 110.186C80.228 110.356 80.7423 110.446 81.2622 110.446C82.4972 110.446 83.6576 109.965 84.5276 109.092C84.9907 108.629 85.3421 108.084 85.5709 107.491L85.7115 107.632C86.6116 108.532 87.7939 108.982 88.9763 108.982C90.1586 108.982 91.3409 108.532 92.241 107.632C92.7194 107.153 93.0789 106.589 93.3066 105.973C94.1124 106.559 95.0663 106.852 96.0207 106.852C97.203 106.852 98.386 106.402 99.287 105.502C100.159 104.63 100.639 103.47 100.639 102.236C100.639 101.863 100.594 101.498 100.509 101.144C101.389 100.965 102.197 100.533 102.846 99.8841C103.718 99.0122 104.198 97.8527 104.198 96.6193C104.198 95.6476 103.899 94.7226 103.346 93.947L104.448 92.8451C107.588 89.7028 109.663 85.7317 110.448 81.361C110.58 80.6291 110.942 79.9494 111.497 79.3946L115.595 75.2965L116.315 76.0169C116.584 76.2852 116.935 76.4192 117.287 76.4192C117.638 76.4192 117.99 76.2852 118.258 76.0169L126.598 67.6773C126.855 67.4198 127 67.0704 127 66.7061C127 66.3418 126.855 65.9928 126.597 65.7351ZM50.713 74.461L44.3158 68.0638L60.9394 51.4402L67.3368 57.8374L50.713 74.461ZM67.3434 98.256C66.4872 99.112 65.0939 99.1123 64.2371 98.256C63.8222 97.841 63.5938 97.2895 63.5938 96.7028C63.5938 96.1163 63.8224 95.5647 64.2373 95.1498C64.6654 94.7216 65.2276 94.5075 65.7902 94.5075C66.3525 94.5075 66.9152 94.7216 67.3432 95.1498C68.1995 96.0061 68.1995 97.3995 67.3434 98.256ZM72.5248 103.437C72.1103 103.853 71.5588 104.081 70.9718 104.081C70.3852 104.081 69.8336 103.852 69.4189 103.437C68.5625 102.581 68.5625 101.188 69.4189 100.331C69.8471 99.9031 70.4093 99.6889 70.972 99.6889C71.5341 99.6889 72.0968 99.9031 72.5248 100.331C73.3815 101.188 73.3815 102.581 72.5248 103.437ZM77.5736 108.486C77.1587 108.901 76.6073 109.129 76.0207 109.129C75.434 109.129 74.8824 108.901 74.4677 108.486C73.6112 107.63 73.6112 106.236 74.4677 105.38C74.8959 104.952 75.458 104.738 76.0207 104.738C76.5829 104.738 77.1456 104.952 77.5736 105.38C78.4301 106.236 78.4301 107.63 77.5736 108.486ZM100.902 97.9424C100.549 98.2958 100.08 98.4905 99.5806 98.4905C99.0814 98.4905 98.6119 98.2958 98.2582 97.9416L84.9333 84.6197C84.3965 84.0834 83.527 84.0836 82.9907 84.6201C82.4546 85.1564 82.4547 86.0261 82.9911 86.5624L97.3441 100.914C97.6973 101.267 97.8916 101.737 97.8916 102.236C97.8916 102.737 97.6971 103.207 97.3446 103.559C96.6144 104.289 95.4271 104.289 94.6981 103.56L92.2767 101.139C92.2632 101.125 92.2501 101.11 92.2362 101.097C92.2321 101.093 92.2276 101.089 92.2234 101.085L81.0927 89.9544C80.556 89.4181 79.6866 89.4181 79.1501 89.9544C78.6137 90.4907 78.6137 91.3604 79.1501 91.8968L90.3166 103.063C90.658 103.413 90.8459 103.876 90.8459 104.367C90.8459 104.867 90.6512 105.336 90.2982 105.689C89.5695 106.418 88.3832 106.418 87.6538 105.689L75.5459 93.5811C75.0092 93.0446 74.1398 93.0446 73.6033 93.5811C73.0669 94.1175 73.0669 94.9872 73.6033 95.5235L82.5785 104.499C82.5811 104.501 82.5831 104.504 82.5858 104.507C82.9387 104.859 83.1328 105.328 83.1328 105.827C83.1328 106.326 82.9383 106.796 82.5837 107.15C82.2312 107.504 81.7619 107.698 81.2618 107.698C81.1411 107.698 81.023 107.686 80.9074 107.664C81.1296 106.167 80.6662 104.587 79.5163 103.437C78.5826 102.503 77.3411 101.989 76.0207 101.989C75.9839 101.989 75.9473 101.991 75.9105 101.992C75.9388 100.69 75.4587 99.3794 74.4675 98.3882C73.5336 97.4546 72.2924 96.9403 70.9718 96.9403C70.8892 96.9403 70.807 96.9423 70.725 96.9464C70.7911 95.6003 70.3113 94.2323 69.2856 93.2064C68.0369 91.9579 66.2816 91.5193 64.6759 91.8884L63.6909 90.9034C60.9799 88.1912 59.1763 84.7667 58.4743 81C58.2172 79.6205 57.5502 78.3601 56.5455 77.3553L54.1243 74.934L67.8993 61.159L71.3323 64.5919C72.6518 65.9115 74.4484 66.6176 76.2885 66.6176C77.1125 66.6176 77.9458 66.4758 78.7485 66.1841C79.1379 66.0425 79.5405 65.9409 79.9485 65.8764L71.4439 74.3811C70.4034 75.4215 69.8303 76.8049 69.8303 78.2764C69.8303 79.7478 70.4034 81.1312 71.4438 82.1716C72.5178 83.2456 73.928 83.7824 75.339 83.7822C76.7495 83.7822 78.1603 83.2451 79.2345 82.1716L83.5059 77.9002L84.662 79.0571C84.6623 79.0575 84.6625 79.0576 84.6628 79.058L84.7109 79.106L84.7571 79.1522C84.7572 79.1524 84.7576 79.1527 84.7579 79.1529L84.7588 79.1537C84.772 79.1668 84.785 79.1792 84.7979 79.1917L100.903 95.2966C101.256 95.6497 101.45 96.1193 101.45 96.6188C101.45 97.1192 101.256 97.5888 100.902 97.9424ZM109.554 77.4524C108.601 78.4056 107.975 79.5894 107.744 80.8757C107.059 84.6919 105.247 88.1595 102.505 90.9031L101.449 91.9587L92.7601 83.2696C92.9489 83.2835 93.1385 83.2928 93.3295 83.2928C94.2093 83.2928 95.1096 83.1386 96.0059 82.7719C96.708 82.4847 97.0443 81.6826 96.757 80.9807C96.4698 80.2788 95.6684 79.9423 94.9658 80.2295C91.4308 81.6759 87.1926 77.6899 86.7208 77.2305C86.7129 77.2228 86.705 77.2152 86.6969 77.2078L86.6482 77.1591C86.6481 77.1589 86.6479 77.1589 86.6477 77.1588L86.6052 77.1164C86.6051 77.1163 86.6047 77.1159 86.6044 77.1158L85.4481 75.9586L86.7592 74.6473C87.2959 74.1108 87.2959 73.2412 86.7594 72.7048C86.2229 72.1686 85.3534 72.1684 84.817 72.7048L82.5377 74.9841C82.5369 74.9849 82.5359 74.9858 82.535 74.9866C82.5342 74.9874 82.5333 74.9884 82.5325 74.9893L77.2919 80.2299C76.2149 81.3067 74.463 81.3064 73.3863 80.2299C72.8648 79.7083 72.5776 79.0148 72.5776 78.2771C72.5776 77.5394 72.8648 76.8458 73.3865 76.3243L82.4319 67.2786C82.9351 66.7755 83.4945 66.3329 84.0956 65.9622C85.5238 65.0794 87.1735 64.6127 88.8661 64.6127C90.1582 64.6127 91.4593 64.8932 92.6291 65.4242C95.29 66.6315 98.4527 66.069 100.499 64.0237L102.41 62.112L113.652 73.354L109.554 77.4524ZM117.286 73.1037L102.549 58.3669L108.947 51.9696L123.684 66.7065L117.286 73.1037Z" fill="#A80010"/>
<path d="M118.67 69.1301C119.428 69.1301 120.043 68.5151 120.043 67.7566C120.043 66.998 119.428 66.3831 118.67 66.3831C117.911 66.3831 117.296 66.998 117.296 67.7566C117.296 68.5151 117.911 69.1301 118.67 69.1301Z" fill="#A80010"/>
<path d="M49.9975 70.4871C50.756 70.4871 51.371 69.8722 51.371 69.1136C51.371 68.3551 50.756 67.7401 49.9975 67.7401C49.2389 67.7401 48.624 68.3551 48.624 69.1136C48.624 69.8722 49.2389 70.4871 49.9975 70.4871Z" fill="#A80010"/>
</g>
<defs>
<clipPath id="clip0">
<rect width="86" height="86" fill="white" transform="translate(41 37)"/>
</clipPath>
</defs>
</svg>
