<svg width="109" height="101" viewBox="0 0 109 101" fill="none" xmlns="http://www.w3.org/2000/svg">
<path d="M95.8598 68.3553C94.9026 66.7011 93.329 65.4934 91.4835 64.9965C89.6379 64.4996 87.6707 64.754 86.0123 65.7041L68.4275 75.8582C67.4672 74.4193 66.0198 73.3754 64.3514 72.9184L37.4421 65.7221C35.3713 65.1633 33.1917 65.1447 31.1116 65.668L21.6429 68.0307V66.7321C21.6429 66.2538 21.4528 65.795 21.1146 65.4568C20.7764 65.1186 20.3176 64.9286 19.8393 64.9286H14.4286V63.125C14.4286 62.6466 14.2386 62.1879 13.9003 61.8497C13.5621 61.5114 13.1033 61.3214 12.625 61.3214H1.80357C1.32523 61.3214 0.866489 61.5114 0.528254 61.8497C0.190019 62.1879 0 62.6466 0 63.125V99.1964C0 99.6747 0.190019 100.133 0.528254 100.472C0.866489 100.81 1.32523 101 1.80357 101H12.625C13.1033 101 13.5621 100.81 13.9003 100.472C14.2386 100.133 14.4286 99.6747 14.4286 99.1964V97.3928H19.8393C20.3176 97.3928 20.7764 97.2028 21.1146 96.8646C21.4528 96.5264 21.6429 96.0676 21.6429 95.5893V94.9039L23.9695 96.0582C25.7228 96.9333 27.6551 97.3901 29.6146 97.3928H56.6141C58.8314 97.3976 61.0101 96.8125 62.9266 95.6975L93.2266 78.2028C94.8771 77.2419 96.0803 75.667 96.5737 73.822C97.067 71.977 96.8104 70.0118 95.8598 68.3553ZM10.8214 97.3928H3.60714V64.9286H10.8214V97.3928ZM18.0357 93.7857H14.4286V68.5357H18.0357V93.7857ZM91.423 75.0827L61.123 92.5773C59.7528 93.3703 58.1973 93.7872 56.6141 93.7857H29.6146C28.2116 93.7885 26.8276 93.4611 25.5746 92.8298L21.6429 90.8639V71.7461L31.9773 69.1669C33.4645 68.791 35.0233 68.8034 36.5043 69.203L63.4136 76.4173C64.1059 76.5971 64.7287 76.9795 65.2023 77.5155C65.6758 78.0516 65.9785 78.7168 66.0715 79.426C66.1645 80.1352 66.0436 80.856 65.7243 81.4961C65.405 82.1361 64.9018 82.6662 64.2793 83.0184C63.8728 83.2582 63.4221 83.4137 62.9543 83.4756C62.4864 83.5376 62.0108 83.5048 61.5559 83.3791L40.0393 77.6077C39.5753 77.4833 39.0809 77.5483 38.6649 77.7885C38.2489 78.0286 37.9453 78.4242 37.8209 78.8882C37.6965 79.3522 37.7616 79.8466 38.0017 80.2626C38.2419 80.6786 38.6374 80.9822 39.1014 81.1066L60.618 86.86C61.2298 87.0247 61.8602 87.1096 62.4938 87.1125C63.7556 87.1143 64.995 86.778 66.0829 86.1385C66.9072 85.6677 67.6298 85.0379 68.2088 84.2855C68.7878 83.5332 69.2115 82.6733 69.4555 81.7559C69.6556 80.9608 69.7226 80.138 69.6539 79.3211L87.8159 68.8423C88.6446 68.3823 89.6197 68.2625 90.5351 68.5082C91.4505 68.7539 92.2346 69.3458 92.7216 70.1589C93.2006 70.9845 93.3329 71.9662 93.0895 72.889C92.8461 73.8119 92.2468 74.6007 91.423 75.0827Z" fill="black"/>
<path d="M106.411 0H95.5893C95.111 0 94.6522 0.190019 94.314 0.528254C93.9758 0.866489 93.7858 1.32523 93.7858 1.80357V3.60714H88.375C87.8967 3.60714 87.438 3.79716 87.0997 4.1354C86.7615 4.47363 86.5715 4.93238 86.5715 5.41071V6.09607L84.2449 4.92375C82.4868 4.06401 80.5567 3.61386 78.5997 3.60714H51.6002C49.3862 3.60939 47.2108 4.18741 45.2877 5.28446L14.9877 22.7971C13.3303 23.7538 12.1208 25.3297 11.6252 27.1782C11.1297 29.0266 11.3888 30.9962 12.3455 32.6537C13.3022 34.3111 14.8781 35.5206 16.7265 36.0161C18.575 36.5116 20.5446 36.2526 22.202 35.2959L25.0697 33.6366C23.9933 36.1119 23.4407 38.783 23.4465 41.4821C23.4411 44.6677 24.203 47.8078 25.6676 50.6367C27.1322 53.4657 29.2565 55.9004 31.8609 57.7349C34.4652 59.5694 37.473 60.7497 40.63 61.1762C43.7869 61.6026 47.0001 61.2626 49.9979 60.1848C52.9956 59.107 55.6897 57.3232 57.8524 54.9842C60.0151 52.6452 61.5828 49.8199 62.4228 46.747C63.2628 43.6742 63.3506 40.4442 62.6785 37.3303C62.0065 34.2164 60.5946 31.3101 58.562 28.8571H60.2934L62.0249 31.7429C63.1523 33.6104 64.7421 35.1557 66.6407 36.2298C68.5394 37.304 70.6829 37.8706 72.8643 37.875H74.8663C78.173 37.8874 81.3502 36.5905 83.7038 34.2679H86.5715C86.5715 34.7462 86.7615 35.2049 87.0997 35.5432C87.438 35.8814 87.8967 36.0714 88.375 36.0714H93.7858V37.875C93.7858 38.3533 93.9758 38.8121 94.314 39.1503C94.6522 39.4886 95.111 39.6786 95.5893 39.6786H106.411C106.889 39.6786 107.348 39.4886 107.686 39.1503C108.024 38.8121 108.214 38.3533 108.214 37.875V1.80357C108.214 1.32523 108.024 0.866489 107.686 0.528254C107.348 0.190019 106.889 0 106.411 0ZM59.5179 41.4821C59.5225 44.8054 58.5069 48.0501 56.6084 50.7777C54.7098 53.5053 52.0198 55.5845 48.9017 56.7342C45.7837 57.884 42.3878 58.0491 39.173 57.207C35.9581 56.365 33.0792 54.5565 30.9251 52.0258C28.771 49.4951 27.4456 46.3642 27.1279 43.0561C26.8103 39.748 27.5157 36.4222 29.1488 33.5278C30.7819 30.6335 33.2641 28.3101 36.26 26.8717C39.2558 25.4333 42.621 24.949 45.9009 25.4845C46.4674 26.5205 47.306 27.3822 48.3263 27.9766C49.3465 28.571 50.5098 28.8754 51.6904 28.8571H53.4399C55.3278 30.3773 56.853 32.2994 57.9044 34.4833C58.9559 36.6673 59.5071 39.0583 59.5179 41.4821ZM86.5715 30.6607H82.9643C82.4862 30.6643 82.0277 30.8515 81.6838 31.1838L81.2509 31.6346C80.4134 32.4735 79.4179 33.138 78.322 33.59C77.2262 34.042 76.0517 34.2723 74.8663 34.2679H72.8643C71.3067 34.2641 69.7763 33.8589 68.4209 33.0912C67.0656 32.3234 65.9311 31.2192 65.127 29.8852L62.8725 26.1338C62.7143 25.8633 62.4876 25.6392 62.2154 25.4841C61.9431 25.329 61.6348 25.2482 61.3215 25.25H51.6904C51.2641 25.2474 50.8429 25.1581 50.4522 24.9875C50.0615 24.817 49.7096 24.5688 49.4179 24.258C49.1741 24.0125 48.9841 23.719 48.8599 23.396C48.7357 23.0731 48.6801 22.7279 48.6965 22.3823C48.7413 21.6945 49.0455 21.0494 49.5477 20.5773C50.0499 20.1053 50.7126 19.8415 51.4018 19.8393H68.5358C69.0141 19.8393 69.4728 19.6493 69.8111 19.311C70.1493 18.9728 70.3393 18.5141 70.3393 18.0357C70.3393 17.5574 70.1493 17.0986 69.8111 16.7604C69.4728 16.4222 69.0141 16.2321 68.5358 16.2321H51.4018C49.8667 16.2193 48.3809 16.7737 47.2293 17.7888C46.0777 18.8039 45.3414 20.2085 45.1615 21.733C44.5302 21.6789 43.917 21.6429 43.2858 21.6429C38.6118 21.6463 34.0893 23.3007 30.5165 26.3141L20.3984 32.1577C19.5697 32.6177 18.5946 32.7375 17.6792 32.4918C16.7638 32.2461 15.9797 31.6542 15.4927 30.8411C15.0137 30.0155 14.8814 29.0338 15.1248 28.1109C15.3682 27.1881 15.9675 26.3993 16.7913 25.9173L47.0913 8.42268C48.4624 7.63183 50.0173 7.21512 51.6002 7.21429H78.5997C79.9996 7.22008 81.3803 7.54061 82.6397 8.15214L86.5715 10.1361V30.6607ZM93.7858 32.4643H90.1786V7.21429H93.7858V32.4643ZM104.607 36.0714H97.3929V3.60714H104.607V36.0714Z" fill="black"/>
<path d="M41.4822 36.0715H45.0894C45.5677 36.0715 46.0265 36.2615 46.3647 36.5997C46.7029 36.938 46.893 37.3967 46.893 37.875C46.893 38.3534 47.083 38.8121 47.4212 39.1504C47.7594 39.4886 48.2182 39.6786 48.6965 39.6786C49.1749 39.6786 49.6336 39.4886 49.9719 39.1504C50.3101 38.8121 50.5001 38.3534 50.5001 37.875C50.5001 36.44 49.93 35.0638 48.9153 34.0491C47.9006 33.0344 46.5244 32.4643 45.0894 32.4643V30.6607C45.0894 30.1824 44.8994 29.7237 44.5611 29.3854C44.2229 29.0472 43.7642 28.8572 43.2858 28.8572C42.8075 28.8572 42.3487 29.0472 42.0105 29.3854C41.6723 29.7237 41.4822 30.1824 41.4822 30.6607V32.4643C40.0472 32.4643 38.671 33.0344 37.6563 34.0491C36.6416 35.0638 36.0715 36.44 36.0715 37.875C36.0715 39.31 36.6416 40.6863 37.6563 41.701C38.671 42.7157 40.0472 43.2857 41.4822 43.2857H45.0894C45.5677 43.2857 46.0265 43.4758 46.3647 43.814C46.7029 44.1522 46.893 44.611 46.893 45.0893C46.893 45.5677 46.7029 46.0264 46.3647 46.3646C46.0265 46.7029 45.5677 46.8929 45.0894 46.8929H41.4822C41.0039 46.8929 40.5452 46.7029 40.2069 46.3646C39.8687 46.0264 39.6787 45.5677 39.6787 45.0893C39.6787 44.611 39.4887 44.1522 39.1504 43.814C38.8122 43.4758 38.3534 43.2857 37.8751 43.2857C37.3968 43.2857 36.938 43.4758 36.5998 43.814C36.2616 44.1522 36.0715 44.611 36.0715 45.0893C36.0715 46.5243 36.6416 47.9006 37.6563 48.9153C38.671 49.93 40.0472 50.5 41.4822 50.5V52.3036C41.4822 52.7819 41.6723 53.2407 42.0105 53.5789C42.3487 53.9172 42.8075 54.1072 43.2858 54.1072C43.7642 54.1072 44.2229 53.9172 44.5611 53.5789C44.8994 53.2407 45.0894 52.7819 45.0894 52.3036V50.5C46.5244 50.5 47.9006 49.93 48.9153 48.9153C49.93 47.9006 50.5001 46.5243 50.5001 45.0893C50.5001 43.6543 49.93 42.2781 48.9153 41.2634C47.9006 40.2487 46.5244 39.6786 45.0894 39.6786H41.4822C41.0039 39.6786 40.5452 39.4886 40.2069 39.1504C39.8687 38.8121 39.6787 38.3534 39.6787 37.875C39.6787 37.3967 39.8687 36.938 40.2069 36.5997C40.5452 36.2615 41.0039 36.0715 41.4822 36.0715Z" fill="black"/>
<rect x="3" y="65" width="8" height="33" fill="#A80010"/>
<rect x="14" y="68" width="4" height="27" fill="#A80010"/>
<rect x="97" y="3" width="8" height="33" fill="#A80010"/>
<rect x="90" y="7" width="4" height="27" fill="#A80010"/>
</svg>
