<svg width="1034" height="623" viewBox="0 0 1034 623" fill="none" xmlns="http://www.w3.org/2000/svg">
<g opacity="0.79">
<path d="M1017.12 480.09C1026.37 480.09 1033.87 472.591 1033.87 463.342C1033.87 454.093 1026.37 446.595 1017.12 446.595H981.348C981.323 446.595 981.299 446.595 981.272 446.595H935.237C994.5 408.672 1033.87 342.268 1033.87 266.84C1033.87 154.89 947.154 62.8158 837.366 54.2457V34.6111C837.366 15.5259 821.84 0 802.754 0H731.299C712.214 0 696.688 15.5259 696.688 34.6111V53.5914H337.179V52.4749C337.179 43.2259 329.683 35.7276 320.432 35.7276C311.181 35.7276 303.685 43.2259 303.685 52.4749V53.5914H229.996V52.4749C229.996 43.2259 222.5 35.7276 213.249 35.7276C203.998 35.7276 196.502 43.2259 196.502 52.4749V54.2457C86.7131 62.8158 0 154.89 0 266.84C0 342.268 39.3651 408.672 98.6305 446.595H52.5866C52.5687 446.595 52.5531 446.595 52.5352 446.595H16.7473C7.4961 446.595 0 454.093 0 463.342C0 472.591 7.4961 480.09 16.7473 480.09H43.5117L70.0172 519.848C59.8348 530.814 53.5914 545.484 53.5914 561.593C53.5914 571.642 56.032 581.125 60.3305 589.505H16.7473C7.4961 589.505 0 597.004 0 606.253C0 615.502 7.4961 623 16.7473 623H1017.12C1026.37 623 1033.87 615.502 1033.87 606.253C1033.87 597.004 1026.37 589.505 1017.12 589.505H973.537C977.833 581.125 980.276 571.642 980.276 561.593C980.276 545.484 974.033 530.814 963.848 519.848L990.356 480.09H1017.12ZM730.183 34.6111C730.183 33.9948 730.685 33.4946 731.299 33.4946H802.754C803.369 33.4946 803.871 33.9948 803.871 34.6111V53.5914H730.183V34.6111ZM820.618 87.086C919.736 87.086 1000.37 167.723 1000.37 266.84C1000.37 365.958 919.736 446.595 820.618 446.595H337.179V87.086H820.618ZM229.996 446.595V426.498H303.685V446.595H229.996ZM303.685 321.548H229.996V283.588H303.685V321.548ZM303.685 250.093H229.996V212.133H303.685V250.093ZM229.996 355.043H303.685V393.004H229.996V355.043ZM303.685 178.638H229.996V140.677H303.685V178.638ZM303.685 87.086V107.183H229.996V87.086H303.685ZM33.4946 266.84C33.4946 173.373 105.211 96.3707 196.502 87.8944V445.789C105.211 437.31 33.4946 360.308 33.4946 266.84ZM87.086 561.593C87.086 546.201 99.6063 533.681 114.998 533.681C130.39 533.681 142.91 546.201 142.91 561.593C142.91 576.985 130.39 589.505 114.998 589.505C99.6063 589.505 87.086 576.985 87.086 561.593ZM318.48 551.545H715.389C714.849 554.816 714.554 558.17 714.554 561.593C714.554 571.642 716.995 581.125 721.293 589.505H312.576C316.873 581.125 319.315 571.642 319.315 561.593C319.315 558.17 319.021 554.816 318.48 551.545ZM836.53 551.545H858.3C857.759 554.816 857.465 558.17 857.465 561.593C857.465 571.642 859.905 581.125 864.204 589.505H830.631C834.927 581.125 837.37 571.642 837.37 561.593C837.366 558.17 837.071 554.816 836.53 551.545ZM775.959 589.505C760.567 589.505 748.047 576.985 748.047 561.593C748.047 546.201 760.567 533.681 775.959 533.681C791.351 533.681 803.871 546.201 803.871 561.593C803.871 576.985 791.351 589.505 775.959 589.505ZM257.909 589.505C242.517 589.505 229.996 576.985 229.996 561.593C229.996 546.201 242.517 533.681 257.909 533.681C273.301 533.681 285.821 546.201 285.821 561.593C285.821 576.985 273.301 589.505 257.909 589.505ZM203.241 589.505H169.666C173.962 581.125 176.405 571.642 176.405 561.593C176.405 558.17 176.11 554.816 175.57 551.545H197.339C196.799 554.816 196.504 558.17 196.504 561.593C196.502 571.642 198.942 581.125 203.241 589.505ZM890.957 561.593C890.957 546.201 903.477 533.681 918.869 533.681C934.261 533.681 946.781 546.201 946.781 561.593C946.781 576.985 934.261 589.505 918.869 589.505C903.477 589.505 890.957 576.985 890.957 561.593ZM935.219 502.413C930.009 500.972 924.532 500.186 918.869 500.186C902.015 500.186 886.726 507.017 875.619 518.05H820.618C820.167 518.05 819.723 518.084 819.281 518.117C808.167 507.044 792.849 500.186 775.959 500.186C759.069 500.186 743.75 507.044 732.637 518.117C732.195 518.081 731.75 518.05 731.299 518.05H302.568C302.117 518.05 301.673 518.084 301.231 518.117C290.117 507.044 274.799 500.186 257.909 500.186C241.054 500.186 225.765 507.017 214.658 518.05H158.249C147.142 507.017 131.853 500.186 114.998 500.186C109.338 500.186 103.858 500.972 98.6484 502.413L83.7678 480.09H950.102L935.219 502.413Z" fill="#F0F0F0"/>
<path d="M570.525 194.27H820.618C829.87 194.27 837.366 186.771 837.366 177.522C837.366 168.273 829.87 160.775 820.618 160.775H570.525C561.274 160.775 553.778 168.273 553.778 177.522C553.778 186.771 561.274 194.27 570.525 194.27Z" fill="#F0F0F0"/>
<path d="M767.027 232.23H624.117C614.865 232.23 607.369 239.728 607.369 248.977C607.369 258.226 614.865 265.724 624.117 265.724H767.027C776.278 265.724 783.774 258.226 783.774 248.977C783.774 239.728 776.278 232.23 767.027 232.23Z" fill="#F0F0F0"/>
</g>
</svg>
