<svg width="98" height="98" viewBox="0 0 98 98" fill="none" xmlns="http://www.w3.org/2000/svg">
<path d="M33.049 75.1501C32.5464 75.1501 32.0535 75.3527 31.698 75.71C31.3428 76.0654 31.1382 76.5565 31.1382 77.0609C31.1382 77.5635 31.3426 78.0565 31.698 78.4119C32.0535 78.7673 32.5464 78.9718 33.049 78.9718C33.5515 78.9718 34.0445 78.7673 34.3999 78.4119C34.7551 78.0565 34.9598 77.5635 34.9598 77.0609C34.9598 76.5565 34.7553 76.0654 34.3999 75.71C34.0445 75.3525 33.5515 75.1501 33.049 75.1501Z" fill="black"/>
<path d="M50.5052 62.6982C50.5052 61.6428 49.6496 60.7874 48.5944 60.7874H27.2565C26.2014 60.7874 25.3457 61.6428 25.3457 62.6982C25.3457 63.7535 26.2014 64.609 27.2565 64.609H48.5944C49.6498 64.609 50.5052 63.7535 50.5052 62.6982Z" fill="black"/>
<path d="M25.0309 43.208H50.8204C51.8756 43.208 52.7312 42.3525 52.7312 41.2972C52.7312 40.2418 51.8756 39.3864 50.8204 39.3864H25.0309C23.9758 39.3864 23.1201 40.2418 23.1201 41.2972C23.1201 42.3525 23.9758 43.208 25.0309 43.208Z" fill="black"/>
<path d="M37.3487 28.2902C35.9611 28.2902 34.8323 27.3449 34.8323 26.1832C34.8323 25.1278 33.9767 24.2724 32.9215 24.2724C31.8664 24.2724 31.0107 25.1278 31.0107 26.1832C31.0107 28.8294 32.8742 31.0758 35.4379 31.8359V32.1015C35.4379 33.1568 36.2935 34.0123 37.3487 34.0123C38.4038 34.0123 39.2595 33.1568 39.2595 32.1015V31.8359C41.8232 31.076 43.6866 28.8296 43.6866 26.1832C43.6866 22.9142 40.8433 20.2545 37.3487 20.2545C35.9611 20.2545 34.8323 19.3093 34.8323 18.1475C34.8323 16.9857 35.9611 16.0404 37.3487 16.0404C38.7363 16.0404 39.865 16.9857 39.865 18.1475C39.865 19.2028 40.7207 20.0583 41.7758 20.0583C42.831 20.0583 43.6866 19.2028 43.6866 18.1475C43.6866 15.5012 41.8232 13.2549 39.2595 12.4948V12.2292C39.2595 11.1738 38.4038 10.3184 37.3487 10.3184C36.2935 10.3184 35.4379 11.1738 35.4379 12.2292V12.4948C32.8742 13.2547 31.0107 15.501 31.0107 18.1475C31.0107 21.4165 33.854 24.0761 37.3487 24.0761C38.7363 24.0761 39.865 25.0214 39.865 26.1832C39.865 27.3449 38.7363 28.2902 37.3487 28.2902Z" fill="black"/>
<path d="M94.8075 59.0205L91.8265 61.1615C87.3533 64.3743 82.0776 66.0727 76.57 66.0727H69.9233C68.3412 66.0727 67.0537 64.7854 67.0537 63.2032C67.0537 61.6209 68.341 60.3336 69.9233 60.3336H73.1717C78.7407 60.3336 83.2919 55.9034 83.4923 50.3825L91.8404 35.9231H95.954C97.0091 35.9231 97.8648 35.0676 97.8648 34.0123C97.8648 32.9569 97.0091 32.1015 95.954 32.1015H94.0468L97.6087 25.9319C97.8621 25.493 97.9309 24.9715 97.7996 24.482C97.6684 23.9924 97.3483 23.5751 96.9094 23.3217L89.6283 19.118C88.7141 18.5904 87.5457 18.9036 87.0181 19.8173L79.926 32.1015H78.1212C77.1645 32.1015 76.2179 32.167 75.2856 32.2931V1.9108C75.2856 0.855466 74.4299 0 73.3748 0H1.9108C0.855657 0 0 0.855466 0 1.9108V95.9223C0 96.9776 0.855657 97.8331 1.9108 97.8331H73.3748C74.4299 97.8331 75.2856 96.9776 75.2856 95.9223V69.8943H76.5702C82.8826 69.8943 88.9291 67.9479 94.0562 64.2654L97.0372 62.1244C97.8942 61.5087 98.0901 60.3148 97.4744 59.4577C96.8587 58.6009 95.6651 58.4046 94.8075 59.0205ZM67.981 69.6057L67.9659 69.6319L63.3901 72.9718L63.9947 67.339L64.2964 66.8164C65.1467 68.1365 66.4476 69.1397 67.981 69.6057ZM89.3724 23.3831L93.344 25.676L75.8839 55.9177C75.0576 56.2981 74.1395 56.512 73.1719 56.512H70.2455L89.3724 23.3831ZM67.723 53.2378C67.7228 53.2384 67.7225 53.2388 67.7221 53.2391L62.7741 61.8093C62.4595 62.3539 61.9476 62.724 61.332 62.8518C60.7167 62.9797 60.0991 62.8438 59.5939 62.4693C58.8856 61.944 58.5653 61.052 58.7784 60.1962L61.606 48.8323C62.3552 45.8212 63.9133 43.0725 66.1118 40.8831C69.2268 37.781 73.3337 36.0356 77.7137 35.9332L67.723 53.2378ZM3.8216 94.0115V3.8216H71.464V33.1838C68.4675 34.1906 65.7197 35.8803 63.4153 38.1752C60.7232 40.8562 58.8153 44.2221 57.8977 47.9094L57.356 50.0869H17.0623C16.0072 50.0869 15.1515 50.9424 15.1515 51.9977C15.1515 53.053 16.0072 53.9085 17.0623 53.9085H36.7336H56.405L55.0701 59.2731C54.4831 61.632 55.3655 64.0915 57.3183 65.5392C58.1763 66.1753 59.181 66.5593 60.222 66.6763L59.3126 75.1494H41.648C40.5929 75.1494 39.7372 76.0048 39.7372 77.0602C39.7372 78.1155 40.5929 78.971 41.648 78.971H61.0295C61.4264 78.971 61.8221 78.8473 62.1561 78.6035L70.5453 72.4805C70.7604 72.3235 70.9402 72.123 71.0736 71.8924L71.4642 71.216V94.0113L3.8216 94.0115Z" fill="black"/>
<path d="M89.5 23L93.5 25.5L76 56.5L69.5 57L89.5 23Z" fill="#A80010"/>
</svg>
