<svg width="123" height="116" viewBox="0 0 123 116" fill="none" xmlns="http://www.w3.org/2000/svg">
<path d="M84 56.6816L46.5324 114L2.41722 114L38.0719 59.8659L2.3368e-06 2.85881e-07L48.3453 4.51236e-06L84 56.6816Z" fill="#F5F5F5"/>
<g clip-path="url(#clip0)">
<path d="M108.721 85.9354L100.298 91.1813C98.8532 86.7688 94.7453 83.6648 90.0112 83.6017L81.4475 83.4275C76.6006 80.5827 70.3734 81.6898 66.7924 86.0956C65.8697 87.2307 65.1126 88.3029 64.5329 89.2944H62.336V88.1327C62.336 87.2806 61.6451 86.5898 60.7931 86.5898H45.543C44.6909 86.5898 44 87.2806 44 88.1327V106.358C44 107.211 44.6909 107.901 45.543 107.901H60.7931C61.6451 107.901 62.336 107.211 62.336 106.358V104.384L83.5193 109.035C84.958 109.357 86.4196 109.516 87.8743 109.516C91.5452 109.515 95.1676 108.505 98.2347 106.57C98.3537 106.495 111.4 97.6507 122.323 90.2448C122.692 89.994 122.936 89.5956 122.989 89.1522C123.042 88.7087 122.901 88.264 122.601 87.9328C119.062 84.019 113.228 83.1766 108.721 85.9354ZM59.2501 104.816H47.0859V89.6759H59.2501V104.816ZM96.5734 103.969C92.9778 106.233 88.4668 106.981 84.1875 106.022L62.336 101.224V92.3807H65.4482C66.031 92.3807 66.5641 92.0523 66.8264 91.5317C67.3403 90.5112 68.1347 89.3372 69.1871 88.0422C71.8723 84.7384 76.5926 83.9727 80.1663 86.2613C80.4057 86.4146 80.6828 86.4987 80.9669 86.5046L89.9593 86.6874C93.3526 86.7325 96.2946 88.9434 97.3488 92.0931H78.6864C77.8344 92.0931 77.1434 92.7839 77.1434 93.636C77.1434 94.4882 77.8344 95.179 78.6864 95.179H99.2753C99.5637 95.179 99.8462 95.0983 100.091 94.9457L110.342 88.5614C113.048 86.9053 116.427 87.0602 118.948 88.8047C110.582 94.4771 97.103 103.614 96.5734 103.969Z" fill="#A80010"/>
<path d="M54.5234 97.5214C53.6714 97.5214 52.9805 98.2122 52.9805 99.0644V100.198C52.9805 101.05 53.6714 101.741 54.5234 101.741C55.3755 101.741 56.0664 101.05 56.0664 100.198V99.0644C56.0664 98.2122 55.3756 97.5214 54.5234 97.5214Z" fill="#A80010"/>
<path d="M118.789 43.4843H75.6551C73.3336 43.4843 71.4448 45.3731 71.4448 47.6946V74.7918C71.4448 77.1133 73.3336 79.0021 75.6551 79.0021H118.789C121.111 79.0021 123 77.1133 123 74.7918V47.6946C123 45.3731 121.111 43.4843 118.789 43.4843ZM119.914 74.7918C119.914 75.4117 119.409 75.9161 118.789 75.9161H75.6551C75.035 75.9161 74.5308 75.4117 74.5308 74.7918V47.6946C74.5308 47.0746 75.0352 46.5703 75.6551 46.5703H118.789C119.41 46.5703 119.914 47.0746 119.914 47.6946V74.7918Z" fill="#A80010"/>
<path d="M114.668 54.6905C113.215 54.6905 112.032 53.5079 112.032 52.0543C112.032 52.0042 112.034 51.9543 112.036 51.9049C112.061 51.4811 111.909 51.0659 111.618 50.7573C111.326 50.4485 110.92 50.2736 110.496 50.2736H83.95C83.526 50.2736 83.1205 50.4481 82.829 50.756C82.5376 51.0642 82.3859 51.4786 82.4093 51.902C82.4121 51.9525 82.4135 52.0032 82.4135 52.0543C82.4135 53.5079 81.231 54.6905 79.7773 54.6905C78.9253 54.6905 78.2344 55.3812 78.2344 56.2334V66.4911C78.2344 67.3433 78.9253 68.0341 79.7773 68.0341C81.231 68.0341 82.4135 69.2166 82.4135 70.6702C82.4135 71.5224 83.1044 72.2132 83.9565 72.2132H110.489C111.341 72.2132 112.032 71.5224 112.032 70.6702C112.032 69.2166 113.215 68.0341 114.668 68.0341C115.52 68.0341 116.211 67.3433 116.211 66.4911V56.2334C116.211 55.3812 115.52 54.6905 114.668 54.6905ZM113.125 65.1594C111.208 65.6968 109.695 67.2101 109.157 69.1271H85.2884C84.751 67.21 83.2376 65.6968 81.3205 65.1594V57.565C83.3161 57.0055 84.8742 55.3885 85.3495 53.3593H109.096C109.571 55.3883 111.13 57.0055 113.125 57.565V65.1594H113.125Z" fill="#A80010"/>
<path d="M97.2221 56.3911C94.5466 56.3911 92.3701 58.5678 92.3701 61.2433C92.3701 63.9188 94.5466 66.0955 97.2221 66.0955C99.8976 66.0955 102.074 63.9188 102.074 61.2433C102.074 58.5678 99.8975 56.3911 97.2221 56.3911ZM97.2221 63.0095C96.2482 63.0095 95.4561 62.2172 95.4561 61.2433C95.4561 60.2694 96.2484 59.4771 97.2221 59.4771C98.1962 59.4771 98.9884 60.2694 98.9884 61.2433C98.9884 62.2172 98.1961 63.0095 97.2221 63.0095Z" fill="#A80010"/>
</g>
<defs>
<clipPath id="clip0">
<rect width="79" height="79" fill="white" transform="translate(44 37)"/>
</clipPath>
</defs>
</svg>
