<svg width="118" height="158" viewBox="0 0 118 158" fill="none" xmlns="http://www.w3.org/2000/svg">
<path fill-rule="evenodd" clip-rule="evenodd" d="M59 -0.000244141C26.4152 -0.000244141 0 26.415 0 58.9998C0 88.7676 22.0455 113.386 50.7006 117.421L60 158L70.2687 116.925C97.4634 111.665 118 87.7309 118 58.9998C118 26.415 91.5848 -0.000244141 59 -0.000244141Z" fill="#A80010"/>
<path d="M50.841 54.5081V70.9998H42.1693V54.5081H29.6717V70.8657H21V46.9998H45.995L50.841 54.5081ZM74.8158 54.5081H69.5873V70.9998H60.9155V54.5081H50.7135V46.9998H79.6618L74.8158 54.5081ZM80.1719 59.0668L88.0785 46.9998H97.3879L89.8638 58.3964L97.898 70.9998H87.6959L80.1719 59.0668Z" fill="white"/>
</svg>
